<?xml version="1.0" encoding="utf-8"?>
<!-- Generator: Adobe Illustrator 17.0.0, SVG Export Plug-In . SVG Version: 6.00 Build 0)  -->
<!DOCTYPE svg PUBLIC "-//W3C//DTD SVG 1.1//EN" "http://www.w3.org/Graphics/SVG/1.1/DTD/svg11.dtd">
<svg version="1.1" id="Layer_1" xmlns="http://www.w3.org/2000/svg" xmlns:xlink="http://www.w3.org/1999/xlink" x="0px" y="0px"
	 width="374px" height="374px" viewBox="0 0 374 374" enable-background="new 0 0 374 374" xml:space="preserve">
<circle fill="#FFFFFF" cx="186.321" cy="190.35" r="170.406"/>
<g>
	<g>
		<path fill="#895E25" d="M185.667,334.355v12c84.116,0,152.577-67.005,154.932-150.551h-12.008
			C326.239,272.722,263.154,334.355,185.667,334.355z"/>
		<path fill="#F9E3A5" d="M185.667,334.355c77.487,0,140.573-61.633,142.924-138.551H185.667V334.355z"/>
	</g>
	<path fill="#C6B3A7" d="M268.811,287.491c6.548-8.316,5.407-20.135-2.547-26.397c-7.954-6.262-19.71-4.597-24.994,4.653
		l8.754,6.468l-7.06,6.527l12.695,9.995l4.721-8.455L268.811,287.491z"/>
	<g>
		<path fill="none" d="M315.553,195.805c0.742,0.229,1.474,0.533,2.18,0.922c5.839,3.215,7.847,10.77,4.485,16.875l-6.25-3.779
			l-2.16,5.999l-9.319-5.132l3.887-4.997l-6.381-3.263c1.269-3.419,3.898-5.68,6.946-6.625H199.678l2.089,6.302l7.498-4.276
			l5.081,13.475l-8.394,1.727l3.699,8.969c-8.294,4.623-18.031,0.477-21.214-7.966c-2.474-6.562-0.248-13.775,5.005-18.232h-7.775
			v100.488c1.997,0.125,4.004,0.676,5.875,1.706c7.129,3.926,9.581,13.15,5.476,20.604l-7.631-4.614l-2.638,7.324l-1.083-0.596
			v13.64c77.487,0,140.573-61.633,142.924-138.551H315.553z M206.405,252.622l-8.188,7.172c-7.909-7.136-7.027-18.977,0.788-25.412
			c7.816-6.435,19.605-5.026,26.333,3.145l-8.842,6.698l7.253,6.417l-12.474,10.27L206.405,252.622z M234.104,305.805
			c-8.294,4.623-18.031,0.477-21.214-7.966c-3.184-8.443,1.391-17.986,10.219-21.315l3.111,9.385l7.498-4.276l5.081,13.475
			l-8.394,1.727L234.104,305.805z M250.828,228.544l-6.25-3.779l-2.16,5.999l-9.319-5.132l3.887-4.997l-6.38-3.263
			c2.441-6.576,9.899-8.918,15.738-5.703C252.182,214.884,254.19,222.44,250.828,228.544z M292.296,245.629l-16.156-0.239
			l1.65-9.472l-10.883,0.172c-1.414-10.559,6.919-19.017,17.041-18.867c10.123,0.15,18.202,8.851,18.045,19.434l-11.076-0.613
			L292.296,245.629z"/>
		<path fill="#C6B3A7" d="M283.948,217.222c-10.123-0.15-18.455,8.308-17.041,18.867l10.883-0.172l-1.65,9.472l16.156,0.239
			l-1.379-9.585l11.076,0.613C302.15,226.073,294.071,217.372,283.948,217.222z"/>
		<path fill="#C6B3A7" d="M216.496,244.226l8.842-6.698c-6.728-8.172-18.517-9.58-26.333-3.145
			c-7.816,6.435-8.698,18.275-0.788,25.412l8.188-7.172l4.87,8.291l12.474-10.27L216.496,244.226z"/>
		<path fill="#C6B3A7" d="M246.343,211.669c-5.839-3.215-13.297-0.873-15.738,5.703l6.38,3.263l-3.887,4.997l9.319,5.132l2.16-5.999
			l6.25,3.779C254.19,222.44,252.182,214.884,246.343,211.669z"/>
		<path fill="#C6B3A7" d="M301.996,202.429l6.381,3.263l-3.887,4.997l9.319,5.132l2.16-5.999l6.25,3.779
			c3.362-6.105,1.354-13.66-4.485-16.875c-0.707-0.389-1.438-0.693-2.18-0.922h-6.611
			C305.893,196.749,303.265,199.011,301.996,202.429z"/>
		<path fill="#C6B3A7" d="M233.718,281.634l-7.498,4.276l-3.111-9.385c-8.828,3.329-13.403,12.872-10.219,21.315
			c3.184,8.443,12.921,12.589,21.214,7.966l-3.699-8.969l8.394-1.727L233.718,281.634z"/>
	</g>
	<path fill="#B29E92" d="M268.811,288.491c6.548-8.316,5.407-20.135-2.547-26.397c-7.954-6.262-19.71-4.597-24.994,4.653
		l8.754,6.468l-7.06,6.527l12.695,9.995l4.721-8.455L268.811,288.491z"/>
	<path fill="#B29E92" d="M284.948,218.222c-10.123-0.15-18.455,8.308-17.041,18.867l10.883-0.172l-1.65,9.472l16.156,0.239
		l-1.379-9.585l11.076,0.613C303.15,227.073,295.071,218.372,284.948,218.222z"/>
	<path fill="#B29E92" d="M217.496,245.226l8.842-6.698c-6.728-8.172-18.517-9.58-26.333-3.145
		c-7.816,6.435-8.698,18.275-0.788,25.412l8.188-7.172l4.87,8.291l12.474-10.27L217.496,245.226z"/>
	<path fill="#B29E92" d="M247.343,212.669c-5.839-3.215-13.297-0.873-15.738,5.703l6.38,3.263l-3.887,4.997l9.319,5.132l2.16-5.999
		l6.25,3.779C255.19,223.44,253.182,215.884,247.343,212.669z"/>
	<path fill="#B29E92" d="M301.996,203.429l6.381,3.263l-3.887,4.997l9.319,5.132l2.16-5.999l6.25,3.779
		c3.362-6.105,1.354-13.66-4.485-16.875c-0.707-0.389-1.438-0.693-2.18-0.922h-6.611
		C305.893,197.749,303.265,200.011,301.996,203.429z"/>
	<path fill="#B29E92" d="M234.718,282.634l-7.498,4.276l-3.111-9.385c-8.828,3.329-13.403,12.872-10.219,21.315
		c3.184,8.443,12.921,12.589,21.214,7.966l-3.699-8.969l8.394-1.727L234.718,282.634z"/>
	<path fill="none" d="M315.553,195.805c0.742,0.229,1.474,0.533,2.18,0.922c5.839,3.215,7.847,10.77,4.485,16.875l-6.25-3.779
		l-2.16,5.999l-9.319-5.132l3.887-4.997l-6.381-3.263c1.269-3.419,3.898-5.68,6.946-6.625H199.678l2.089,6.302l7.498-4.276
		l5.081,13.475l-8.394,1.727l3.699,8.969c-8.294,4.623-18.031,0.477-21.214-7.966c-2.474-6.562-0.248-13.775,5.005-18.232h-7.775
		v100.488c1.997,0.125,4.004,0.676,5.875,1.706c7.129,3.926,9.581,13.15,5.476,20.604l-7.631-4.614l-2.638,7.324l-1.083-0.596v13.64
		c77.487,0,140.573-61.633,142.924-138.551H315.553z M206.405,252.622l-8.188,7.172c-7.909-7.136-7.027-18.977,0.788-25.412
		c7.816-6.435,19.605-5.026,26.333,3.145l-8.842,6.698l7.253,6.417l-12.474,10.27L206.405,252.622z M234.104,305.805
		c-8.294,4.623-18.031,0.477-21.214-7.966c-3.184-8.443,1.391-17.986,10.219-21.315l3.111,9.385l7.498-4.276l5.081,13.475
		l-8.394,1.727L234.104,305.805z M250.828,228.544l-6.25-3.779l-2.16,5.999l-9.319-5.132l3.887-4.997l-6.38-3.263
		c2.441-6.576,9.899-8.918,15.738-5.703C252.182,214.884,254.19,222.44,250.828,228.544z M292.296,245.629l-16.156-0.239l1.65-9.472
		l-10.883,0.172c-1.414-10.559,6.919-19.017,17.041-18.867c10.123,0.15,18.202,8.851,18.045,19.434l-11.076-0.613L292.296,245.629z"
		/>
	<path fill="#C6B3A7" d="M267.811,288.491c6.548-8.316,5.407-20.135-2.547-26.397c-7.954-6.262-19.71-4.597-24.994,4.653
		l8.754,6.468l-7.06,6.527l12.695,9.995l4.721-8.455L267.811,288.491z"/>
	<path fill="#C6B3A7" d="M283.948,217.222c-10.123-0.15-18.455,8.308-17.041,18.867l10.883-0.172l-1.65,9.472l16.156,0.239
		l-1.379-9.585l11.076,0.613C302.15,226.073,294.071,217.372,283.948,217.222z"/>
	<path fill="#C6B3A7" d="M215.496,245.226l8.842-6.698c-6.728-8.172-18.517-9.58-26.333-3.145
		c-7.816,6.435-8.698,18.275-0.788,25.412l8.188-7.172l4.87,8.291l12.474-10.27L215.496,245.226z"/>
	<path fill="#C6B3A7" d="M246.343,211.669c-5.839-3.215-13.297-0.873-15.738,5.703l6.38,3.263l-3.887,4.997l9.319,5.132l2.16-5.999
		l6.25,3.779C254.19,222.44,252.182,214.884,246.343,211.669z"/>
	<path fill="#C6B3A7" d="M300.996,203.429l6.381,3.263l-3.887,4.997l9.319,5.132l2.16-5.999l6.25,3.779
		c3.362-6.105,1.354-13.66-4.485-16.875c-0.707-0.389-1.438-0.693-2.18-0.922h-6.611
		C304.893,197.749,302.265,200.011,300.996,203.429z"/>
	<path fill="#C6B3A7" d="M233.718,281.634l-7.498,4.276l-3.111-9.385c-8.828,3.329-13.403,12.872-10.219,21.315
		c3.184,8.443,12.921,12.589,21.214,7.966l-3.699-8.969l8.394-1.727L233.718,281.634z"/>
	<path fill="#B29E92" d="M192.894,323.276l6.749-3.849l2.801,8.448c7.946-2.996,12.064-11.586,9.198-19.186
		c-2.866-7.6-11.63-11.331-19.095-7.17l3.33,8.073l-7.556,1.555L192.894,323.276z"/>
	<path fill="#C6B3A7" d="M192.794,322.176l6.749-3.849l2.801,8.448c7.946-2.996,12.064-11.586,9.198-19.186
		c-2.866-7.6-11.63-11.331-19.095-7.17l3.33,8.073l-7.556,1.555L192.794,322.176z"/>
	<path fill="#B29E92" d="M204.101,201.797c-6.657,0.065-11.998,5.759-10.899,12.677l7.152-0.288l-0.932,6.254l10.624-0.103
		l-1.061-6.279l7.291,0.225C216.209,207.322,210.758,201.732,204.101,201.797z"/>
	<path fill="#C6B3A7" d="M202.741,200.417c-6.657,0.065-11.998,5.759-10.899,12.677l7.152-0.288l-0.932,6.254l10.624-0.103
		l-1.061-6.279l7.291,0.225C214.848,205.942,209.397,200.353,202.741,200.417z"/>
</g>
<g>
	<g>
		<path fill="#895E25" d="M84.808,294.663l-8.488,8.488c27.853,26.753,65.676,43.204,107.347,43.204v-12
			C145.309,334.355,110.487,319.246,84.808,294.663z"/>
		<path fill="#F9E3A5" d="M84.808,294.663c25.679,24.583,60.502,39.692,98.859,39.692V195.805L84.808,294.663z"/>
	</g>
	<path fill="none" d="M141.165,251.784c7.879,0,14.912,3.613,19.539,9.271c6.526-3.632,10.945-10.591,10.945-18.589
		c0-8.369-4.836-15.605-11.863-19.077c0.007-0.229,0.017-0.457,0.017-0.687c0-0.96-0.086-1.898-0.209-2.824l-41.757,41.757
		c0.831,0.398,1.684,0.756,2.569,1.044C124.96,256.098,132.557,251.784,141.165,251.784z"/>
	<path fill="none" d="M163.36,216.112c0.242,1.405,0.376,2.846,0.376,4.32c0,0.273-0.012,0.544-0.021,0.815
		c8.337,4.118,14.073,12.703,14.073,22.63c0,9.802-5.593,18.292-13.759,22.469c1.515,3.241,2.366,6.854,2.366,10.667
		c0,0.273-0.012,0.544-0.021,0.815c8.337,4.118,14.073,12.702,14.073,22.63c0,13.934-11.296,25.23-25.23,25.23
		c-5.124,0-9.887-1.531-13.867-4.156c-2.522,1.663-5.361,2.883-8.405,3.557c15.763,5.984,32.858,9.264,50.721,9.264V195.805
		L163.36,216.112z"/>
	<path fill="none" d="M115.96,278.017c-0.013-0.333-0.025-0.666-0.025-1.003c0-3.159,0.586-6.18,1.646-8.967
		c-1.524-0.456-2.979-1.068-4.367-1.789l-28.406,28.406c5.996,5.74,12.496,10.955,19.417,15.591
		c-1.27-3.012-1.972-6.321-1.972-9.795C102.253,290.678,107.823,282.203,115.96,278.017z"/>
	<path fill="none" d="M153.04,320.316c11.746,0,21.268-9.522,21.268-21.268c0-8.369-4.836-15.605-11.863-19.077
		c0.007-0.229,0.017-0.457,0.017-0.687c0-4.073-1.165-7.864-3.15-11.098c-2.151,0.596-4.414,0.922-6.754,0.922
		c-5.124,0-9.887-1.532-13.867-4.156c-3.98,2.624-8.744,4.156-13.867,4.156c-0.757,0-1.504-0.039-2.244-0.105
		c-1.687,3.048-2.654,6.55-2.654,10.281c0,0.284,0.01,0.565,0.021,0.845c-6.86,3.529-11.555,10.673-11.555,18.919
		c0,11.746,9.522,21.268,21.268,21.268c4.319,0,8.335-1.291,11.69-3.503C144.705,319.025,148.721,320.316,153.04,320.316z"/>
	<path fill="none" d="M138.691,260.231c3.355,2.212,7.371,3.503,11.69,3.503c1.617,0,3.185-0.196,4.698-0.538
		c-3.727-3.22-8.573-5.181-13.885-5.181c-5.593,0-10.666,2.175-14.462,5.705c0.091,0.001,0.178,0.014,0.269,0.014
		C131.32,263.734,135.336,262.443,138.691,260.231z"/>
	<path fill="#0B6D38" d="M157.217,326.69c13.934,0,25.23-11.296,25.23-25.23c0-9.928-5.736-18.512-14.073-22.63
		c0.009-0.271,0.021-0.542,0.021-0.815c0-3.813-0.851-7.427-2.366-10.667c8.165-4.177,13.759-12.667,13.759-22.469
		c0-9.928-5.736-18.512-14.073-22.63c0.009-0.271,0.021-0.542,0.021-0.815c0-1.474-0.134-2.916-0.376-4.32l-3.766,3.766
		c0.123,0.926,0.209,1.864,0.209,2.824c0,0.231-0.01,0.459-0.017,0.687c7.028,3.471,11.863,10.708,11.863,19.077
		c0,7.998-4.42,14.957-10.945,18.589c-4.627-5.658-11.66-9.271-19.539-9.271c-8.608,0-16.205,4.314-20.758,10.895
		c-0.886-0.289-1.739-0.647-2.569-1.044l-4.623,4.623c1.388,0.722,2.843,1.333,4.367,1.789c-1.06,2.787-1.646,5.808-1.646,8.967
		c0,0.336,0.012,0.67,0.025,1.003c-8.138,4.187-13.707,12.662-13.707,22.443c0,3.474,0.703,6.783,1.972,9.795
		c8.917,5.971,18.538,10.971,28.72,14.837c3.044-0.674,5.883-1.894,8.405-3.557C147.33,325.158,152.094,326.69,157.217,326.69z
		 M143.194,259.015c5.312,0,10.158,1.961,13.885,5.181c-1.513,0.342-3.082,0.538-4.698,0.538c-4.319,0-8.335-1.291-11.69-3.503
		c-3.355,2.212-7.371,3.503-11.69,3.503c-0.091,0-0.179-0.012-0.269-0.014C132.528,261.191,137.601,259.015,143.194,259.015z
		 M110.392,300.048c0-8.245,4.695-15.39,11.555-18.919c-0.011-0.281-0.021-0.562-0.021-0.845c0-3.731,0.967-7.233,2.654-10.281
		c0.74,0.065,1.487,0.105,2.244,0.105c5.124,0,9.887-1.532,13.867-4.156c3.98,2.624,8.744,4.156,13.867,4.156
		c2.34,0,4.604-0.325,6.754-0.922c1.985,3.234,3.15,7.025,3.15,11.098c0,0.231-0.01,0.459-0.017,0.687
		c7.028,3.471,11.863,10.708,11.863,19.077c0,11.746-9.522,21.268-21.268,21.268c-4.319,0-8.335-1.291-11.69-3.503
		c-3.355,2.212-7.371,3.503-11.69,3.503C119.914,321.316,110.392,311.794,110.392,300.048z"/>
	<path fill="#118C45" d="M155.217,325.69c13.934,0,25.23-11.296,25.23-25.23c0-9.928-5.736-18.512-14.073-22.63
		c0.009-0.271,0.021-0.542,0.021-0.815c0-3.813-0.851-7.427-2.366-10.667c8.165-4.177,13.759-12.667,13.759-22.469
		c0-9.928-5.736-18.512-14.073-22.63c0.009-0.271,0.021-0.542,0.021-0.815c0-1.474-0.134-2.916-0.376-4.32l-3.766,3.766
		c0.123,0.926,0.209,1.864,0.209,2.824c0,0.231-0.01,0.459-0.017,0.687c7.028,3.471,11.863,10.708,11.863,19.077
		c0,7.998-4.42,14.957-10.945,18.589c-4.627-5.658-11.66-9.271-19.539-9.271c-8.608,0-16.205,4.314-20.758,10.895
		c-0.886-0.289-1.739-0.647-2.569-1.044l-4.623,4.623c1.388,0.722,2.843,1.333,4.367,1.789c-1.06,2.787-1.646,5.808-1.646,8.967
		c0,0.336,0.012,0.67,0.025,1.003c-8.138,4.187-13.707,12.662-13.707,22.443c0,3.474,0.703,6.783,1.972,9.795
		c8.917,5.971,18.538,10.971,28.72,14.837c3.044-0.674,5.883-1.894,8.405-3.557C145.33,324.158,150.094,325.69,155.217,325.69z
		 M141.194,258.015c5.312,0,10.158,1.961,13.885,5.181c-1.513,0.342-3.082,0.538-4.698,0.538c-4.319,0-8.335-1.291-11.69-3.503
		c-3.355,2.212-7.371,3.503-11.69,3.503c-0.091,0-0.179-0.012-0.269-0.014C130.528,260.191,135.601,258.015,141.194,258.015z
		 M108.392,299.048c0-8.245,4.695-15.39,11.555-18.919c-0.011-0.281-0.021-0.562-0.021-0.845c0-3.731,0.967-7.233,2.654-10.281
		c0.74,0.065,1.487,0.105,2.244,0.105c5.124,0,9.887-1.532,13.867-4.156c3.98,2.624,8.744,4.156,13.867,4.156
		c2.34,0,4.604-0.325,6.754-0.922c1.985,3.234,3.15,7.025,3.15,11.098c0,0.231-0.01,0.459-0.017,0.687
		c7.028,3.471,11.863,10.708,11.863,19.077c0,11.746-9.522,21.268-21.268,21.268c-4.319,0-8.335-1.291-11.69-3.503
		c-3.355,2.212-7.371,3.503-11.69,3.503C117.914,320.316,108.392,310.794,108.392,299.048z"/>
</g>
<g>
	<g>
		<path fill="#895E25" d="M40.742,195.805H28.734c1.189,42.157,19.215,80.096,47.586,107.347l8.488-8.488
			C58.611,269.585,41.93,234.647,40.742,195.805z"/>
		<path fill="#F9E3A5" d="M40.742,195.805c1.188,38.842,17.869,73.781,44.066,98.859l98.859-98.859H40.742z"/>
	</g>
</g>
<g>
	<g>
		<path fill="#895E25" d="M127.32,57.895l-4.596-11.087c-19.275,8.253-36.543,20.294-50.857,35.197l8.485,8.485
			C93.561,76.691,109.51,65.54,127.32,57.895z"/>
		<path fill="#F9E3A5" d="M127.32,57.895C109.51,65.54,93.561,76.691,80.352,90.49l103.314,103.314L127.32,57.895z"/>
	</g>
</g>
<g>
	<g>
		<path fill="#895E25" d="M184.455,45.26l-0.029-12.002c-20.966,0.292-41.518,4.851-60.427,13.182l4.615,11.077
			C146.081,49.786,165.075,45.548,184.455,45.26z"/>
		<path fill="#F9E3A5" d="M184.455,45.26c-19.38,0.288-38.373,4.526-55.841,12.257l56.196,134.87L184.455,45.26z"/>
	</g>
</g>
<g>
	<g>
		<path fill="#895E25" d="M127.32,57.895l-4.596-11.087c-19.275,8.253-36.543,20.294-50.857,35.197l8.485,8.485
			C93.561,76.691,109.51,65.54,127.32,57.895z"/>
		<path fill="#F9E3A5" d="M127.32,57.895C109.51,65.54,93.561,76.691,80.352,90.49l103.314,103.314L127.32,57.895z"/>
	</g>
</g>
<line fill="none" stroke="#FFFFFF" stroke-width="2" stroke-miterlimit="10" x1="186.406" y1="193.065" x2="75.32" y2="304.151"/>
<line fill="none" stroke="#FFFFFF" stroke-width="2" stroke-miterlimit="10" x1="183.623" y1="190.448" x2="122.535" y2="45.712"/>
<g>
	<path fill="#895E25" d="M212.453,4.171l-1.911,11.847c77.968,12.58,130.977,85.983,118.397,163.952
		c-0.237,1.47-0.503,2.928-0.783,4.381l11.855,1.913c0.277-1.453,0.538-2.912,0.775-4.382
		C354.421,97.37,296.964,17.806,212.453,4.171z"/>
	<path fill="#F9E3A5" d="M210.542,16.018l-11.829,73.316c2.022-0.191,4.097-0.149,6.196,0.19
		c8.983,1.449,16.021,7.623,19.003,15.573c0.459-0.064,0.925-0.099,1.39-0.141c3.255-5.414,9.569-8.596,16.187-7.528
		c4.247,0.685,7.82,2.996,10.209,6.188c3.099,3.458,4.672,8.231,3.875,13.173c-0.26,1.613-0.756,3.129-1.444,4.522
		c2.496,5.178,3.494,11.142,2.509,17.247c-0.289,1.794-0.745,3.518-1.334,5.17c5.099,3.228,8.83,8.257,10.464,14.051
		c5.184-7.17,14.122-11.225,23.452-9.719c6.318,1.019,11.661,4.405,15.284,9.102c4.537,5.224,6.813,12.346,5.625,19.711
		c-0.246,1.523-0.64,2.984-1.147,4.383l19.174,3.094c0.28-1.452,0.546-2.91,0.783-4.381
		C341.518,102.001,288.51,28.597,210.542,16.018z M255.2,65.684c-2.432,15.074-16.624,25.322-31.698,22.89
		c-7.258-1.171-13.392-5.07-17.533-10.48c-1.768-2.082-3.233-4.415-4.324-6.93l4.74-29.381c6.072-6.794,15.368-10.452,25.031-8.893
		c7.205,1.163,13.303,5.016,17.445,10.364C253.987,49.218,256.551,57.313,255.2,65.684z M310.627,108.186
		c-2.093,12.971-14.304,21.789-27.275,19.697c-6.219-1.003-11.479-4.337-15.043-8.961c-4.473-5.142-6.717-12.157-5.547-19.411
		c2.093-12.971,14.304-21.789,27.275-19.697c6.219,1.003,11.479,4.337,15.044,8.961C309.554,93.917,311.798,100.932,310.627,108.186
		z"/>
	<path fill="#C82027" d="M264.248,174.991l44.397,7.163c0.12-0.295,0.228-0.597,0.337-0.898l-44.311-7.149
		C264.54,174.409,264.39,174.697,264.248,174.991z"/>
	<path fill="#C82027" d="M304.504,157.163c3.935,5.102,5.839,11.752,4.732,18.615c-0.299,1.851-0.807,3.615-1.484,5.28
		l-43.081-6.951l0,0l44.311,7.149c0.507-1.399,0.902-2.86,1.147-4.383C311.318,169.509,309.042,162.387,304.504,157.163z"/>
	<path fill="#C82027" d="M305.081,88.776c3.87,5.02,5.742,11.563,4.653,18.314c-2.093,12.971-14.304,21.789-27.275,19.697
		c-5.717-0.922-10.625-3.812-14.15-7.864c3.565,4.624,8.824,7.957,15.043,8.961c12.971,2.093,25.182-6.726,27.275-19.697
		C311.798,100.932,309.554,93.917,305.081,88.776z"/>
	<path fill="#C82027" d="M254.679,115.694c-0.24,1.485-0.69,2.881-1.295,4.18c0.261,0.472,0.51,0.951,0.744,1.438
		c0.688-1.392,1.183-2.909,1.444-4.522c0.797-4.942-0.775-9.715-3.875-13.173C254.194,106.954,255.395,111.254,254.679,115.694z"/>
	<path fill="#C82027" d="M254.307,64.587c-2.432,15.074-16.624,25.322-31.698,22.89c-6.755-1.09-12.532-4.548-16.64-9.384
		c4.142,5.41,10.276,9.309,17.533,10.48c15.074,2.432,29.266-7.816,31.698-22.89c1.351-8.371-1.214-16.466-6.339-22.43
		C253.385,49.094,255.576,56.719,254.307,64.587z"/>
	<path fill="#E33225" d="M290.114,149.157c5.816,0.938,10.808,3.88,14.391,8.005c-3.623-4.697-8.966-8.082-15.284-9.102
		c-9.33-1.505-18.269,2.549-23.452,9.719c0.164,0.581,0.306,1.17,0.426,1.766C271.296,151.961,280.497,147.606,290.114,149.157z"/>
	<path fill="#E33225" d="M266.194,159.546c0.569,2.804,0.661,5.754,0.178,8.745c-0.331,2.049-0.913,3.994-1.702,5.816l43.081,6.951
		c0.678-1.665,1.186-3.43,1.484-5.28c1.107-6.863-0.796-13.513-4.732-18.615c-3.583-4.125-8.575-7.067-14.391-8.005
		C280.497,147.606,271.296,151.961,266.194,159.546z"/>
	<path fill="#E33225" d="M263.656,100.608c2.093-12.971,14.304-21.789,27.275-19.697c5.717,0.922,10.625,3.812,14.15,7.865
		c-3.565-4.624-8.825-7.957-15.044-8.961c-12.971-2.093-25.182,6.726-27.275,19.697c-1.17,7.254,1.074,14.269,5.547,19.411
		C264.438,113.902,262.566,107.36,263.656,100.608z"/>
	<path fill="#E33225" d="M309.734,107.09c1.089-6.752-0.783-13.294-4.653-18.314c-3.525-4.052-8.433-6.942-14.15-7.865
		c-12.971-2.093-25.182,6.726-27.275,19.697c-1.089,6.752,0.783,13.294,4.653,18.315c3.525,4.052,8.433,6.942,14.15,7.864
		C295.43,128.879,307.641,120.061,309.734,107.09z"/>
	<path fill="#E33225" d="M242.382,98.525c3.744,0.604,6.967,2.472,9.315,5.092c-2.388-3.192-5.962-5.503-10.209-6.188
		c-6.619-1.068-12.932,2.114-16.187,7.528c0.561-0.05,1.124-0.082,1.692-0.1C230.417,100.181,236.268,97.538,242.382,98.525z"/>
	<path fill="#E33225" d="M226.993,104.857c1.827-0.057,3.681,0.039,5.553,0.341c9.186,1.482,16.662,7.118,20.838,14.676
		c0.604-1.3,1.055-2.695,1.295-4.18c0.716-4.44-0.485-8.74-2.982-12.077c-2.348-2.62-5.571-4.488-9.315-5.092
		C236.268,97.538,230.417,100.181,226.993,104.857z"/>
	<path fill="#E33225" d="M207.278,42.879c6.072-6.794,15.368-10.452,25.031-8.893c6.703,1.082,12.448,4.492,16.552,9.268
		c-4.142-5.348-10.24-9.201-17.445-10.364c-9.664-1.559-18.959,2.099-25.031,8.893l-4.74,29.381c1.092,2.516,2.556,4.849,4.324,6.93
		c-1.373-1.793-2.528-3.753-3.431-5.834L207.278,42.879z"/>
	<path fill="#E33225" d="M254.307,64.587c1.27-7.869-0.921-15.493-5.445-21.334c-4.104-4.776-9.849-8.186-16.552-9.268
		c-9.664-1.559-18.959,2.099-25.031,8.893l-4.74,29.381c0.903,2.081,2.058,4.04,3.431,5.834c4.108,4.835,9.885,8.294,16.64,9.384
		C237.683,89.91,251.875,79.662,254.307,64.587z"/>
</g>
<path fill="#D3A72A" d="M112.163,82.663c-2.38-1.578-5.392-2.524-8.671-2.524s-6.291,0.945-8.671,2.524h-0.329l0.028,0.204
	l3.619,15.814h11.235l3.095-15.81l0.023-0.208H112.163z"/>
<path fill="#D3A72A" d="M118.232,92.112c2.458,1.454,5.514,2.244,8.789,2.077c3.275-0.168,6.234-1.266,8.531-2.964l0.328-0.017
	l-0.039-0.202l-4.423-15.608l-11.221,0.575l-2.282,15.948l-0.012,0.208L118.232,92.112z"/>
<path fill="#D3A72A" d="M137.086,108.388c-1.053-2.655-2.986-5.151-5.677-7.023c-2.692-1.872-5.704-2.816-8.559-2.88l-0.27-0.188
	l-0.093,0.184l-6.06,15.048l9.223,6.416l11.569-11.212l0.137-0.157L137.086,108.388z"/>
<path fill="#D3A72A" d="M150.815,122.17c-2.353-1.619-5.348-2.617-8.626-2.673c-3.278-0.057-6.306,0.836-8.714,2.373l-0.329-0.006
	l0.025,0.204l3.344,15.874l11.234,0.194l3.368-15.754l0.027-0.207L150.815,122.17z"/>
<path fill="#D3A72A" d="M165.799,160.703c-0.583-3.105-2.156-6.223-4.684-8.825s-5.601-4.262-8.688-4.933l-0.254-0.261l-0.14,0.18
	l-9.755,15.064l8.663,8.913l14.928-9.736l0.182-0.142L165.799,160.703z"/>
<path fill="#EEC11B" d="M111.163,81.663c-2.38-1.578-5.392-2.524-8.671-2.524s-6.291,0.945-8.671,2.524h-0.329l0.028,0.204
	l3.619,15.814h11.235l3.095-15.81l0.023-0.208H111.163z"/>
<path fill="#EEC11B" d="M117.232,91.112c2.458,1.454,5.514,2.244,8.789,2.077c3.275-0.168,6.234-1.266,8.531-2.964l0.328-0.017
	l-0.039-0.202l-4.423-15.608l-11.221,0.575l-2.282,15.948l-0.012,0.208L117.232,91.112z"/>
<path fill="#EEC11B" d="M136.086,107.388c-1.053-2.655-2.986-5.151-5.677-7.023c-2.692-1.872-5.704-2.816-8.559-2.88l-0.27-0.188
	l-0.093,0.184l-6.06,15.048l9.223,6.416l11.569-11.212l0.137-0.157L136.086,107.388z"/>
<path fill="#EEC11B" d="M149.815,121.17c-2.353-1.619-5.348-2.617-8.626-2.673c-3.278-0.057-6.306,0.836-8.714,2.373l-0.329-0.006
	l0.025,0.204l3.344,15.874l11.234,0.194l3.368-15.754l0.027-0.207L149.815,121.17z"/>
<path fill="#EEC11B" d="M164.799,159.703c-0.583-3.105-2.156-6.223-4.684-8.825s-5.601-4.262-8.688-4.933l-0.254-0.261l-0.14,0.18
	l-9.755,15.064l8.663,8.913l14.928-9.736l0.182-0.142L164.799,159.703z"/>
<line fill="none" stroke="#FFFFFF" stroke-width="2" stroke-miterlimit="10" x1="183.863" y1="192.296" x2="72.777" y2="81.21"/>
<circle fill="none" stroke="#000000" stroke-width="7" stroke-miterlimit="10" cx="55.569" cy="211.24" r="8.412"/>
<circle fill="none" stroke="#000000" stroke-width="7" stroke-miterlimit="10" cx="80.352" cy="268.362" r="8.412"/>
<circle fill="none" stroke="#000000" stroke-width="7" stroke-miterlimit="10" cx="71.802" cy="233.996" r="6.377"/>
<circle fill="none" stroke="#000000" stroke-width="7" stroke-miterlimit="10" cx="153.079" cy="206.495" r="6.377"/>
<circle fill="none" stroke="#000000" stroke-width="7" stroke-miterlimit="10" cx="110.192" cy="219.472" r="8.412"/>
<circle fill="none" stroke="#000000" stroke-width="7" stroke-miterlimit="10" cx="103.202" cy="249.947" r="8.412"/>
<circle fill="none" stroke="#000000" stroke-width="7" stroke-miterlimit="10" cx="134.237" cy="224.236" r="8.412"/>
<circle fill="none" stroke="#000000" stroke-width="7" stroke-miterlimit="10" cx="123.998" cy="196.805" r="8.412"/>
<circle fill="none" stroke="#000000" stroke-width="7" stroke-miterlimit="10" cx="86.842" cy="213.288" r="6.791"/>
<line fill="none" stroke="#FFFFFF" stroke-width="2" stroke-miterlimit="10" x1="340.568" y1="194.355" x2="28.568" y2="194.355"/>
<g>
	<g>
		<path fill="#895E25" d="M40.667,189.355c0-38.357,15.104-73.184,39.686-98.865l-8.485-8.485
			c-26.752,27.854-43.2,65.68-43.2,107.35c0,1.489,0.026,2.971,0.068,4.449h12.008C40.697,192.326,40.667,190.844,40.667,189.355z"
			/>
		<path fill="#F9E3A5" d="M80.352,90.49c-24.582,25.681-39.686,60.508-39.686,98.865c0,1.489,0.03,2.971,0.076,4.449h142.924
			L80.352,90.49z"/>
	</g>
</g>
<path fill="#C02026" d="M92.347,109.885c-11.474-5.672-25.375-0.969-31.047,10.505s-0.969,25.375,10.505,31.047
	c11.474,5.672,25.375,0.969,31.047-10.505S103.822,115.557,92.347,109.885z M68.671,139.803c-1.54-2.325-2.591-5.147-2.93-8.258
	c-0.301-2.77-0.002-5.44,0.776-7.829l12.724,7.023L68.671,139.803z M83.455,126.806l-2.291-13.12
	c2.751,0.025,5.676,0.699,8.48,2.085c2.498,1.235,4.606,2.889,6.231,4.769L83.455,126.806z M92.128,145.391
	c-2.329,1.53-4.867,2.442-7.391,2.771l-0.035-15.279l13.36,6.012C96.747,141.405,94.743,143.673,92.128,145.391z"/>
<path fill="#C02026" d="M105.253,152.198c-10.297,0-18.644,8.347-18.644,18.644s8.347,18.644,18.644,18.644
	s18.644-8.347,18.644-18.644S115.549,152.198,105.253,152.198z M98.845,182.213c-1.939-1.127-3.704-2.788-5.057-4.911
	c-1.205-1.89-1.941-3.923-2.231-5.923l11.679,0.528L98.845,182.213z M104.873,167.57l-6.329-8.645
	c1.993-0.963,4.342-1.52,6.859-1.52c2.242,0,4.351,0.441,6.194,1.218L104.873,167.57z M117.752,177.88
	c-1.134,1.933-2.64,3.496-4.342,4.633l-5.472-11.006l11.778-0.428C119.662,173.359,119.026,175.709,117.752,177.88z"/>
<path fill="#C02026" d="M54.778,156.841c-7.732,4.521-10.336,14.453-5.815,22.186c4.521,7.732,14.453,10.336,22.186,5.815
	s10.336-14.453,5.815-22.186C72.443,154.924,62.51,152.321,54.778,156.841z M63.144,182.194c-1.951,0.005-4.005-0.468-5.953-1.468
	c-1.735-0.891-3.18-2.093-4.276-3.468l9.002-4.731L63.144,182.194z M61.241,168.552l-8.548-3.713
	c1.074-1.598,2.593-3.047,4.483-4.152c1.683-0.984,3.461-1.579,5.186-1.805L61.241,168.552z M75.44,170.639
	c-0.003,1.95-0.447,3.784-1.227,5.386l-8.941-5.862l8.657-5.492C74.889,166.406,75.443,168.45,75.44,170.639z"/>
<path fill="#C02026" d="M139.209,164.178c-7.893,1.59-13.002,9.277-11.412,17.17s9.277,13.002,17.17,11.412
	c7.893-1.59,13.002-9.277,11.412-17.17C154.789,167.697,147.101,162.588,139.209,164.178z M138.932,188.175
	c-1.66-0.565-3.27-1.565-4.634-2.983c-1.216-1.263-2.094-2.707-2.625-4.195l9.034-1.398L138.932,188.175z M141.291,176.02
	l-6.186-5.649c1.379-1.046,3.094-1.835,5.023-2.224c1.718-0.346,3.403-0.334,4.936-0.023L141.291,176.02z M152.756,181.934
	c-0.571,1.657-1.483,3.087-2.613,4.222l-5.894-7.591l8.962-2.146C153.522,178.173,153.397,180.073,152.756,181.934z"/>
<path fill="#DC1F26" d="M91.347,108.885c-11.474-5.672-25.375-0.969-31.047,10.505s-0.969,25.375,10.505,31.047
	c11.474,5.672,25.375,0.969,31.047-10.505S102.822,114.557,91.347,108.885z M67.671,138.803c-1.54-2.325-2.591-5.147-2.93-8.258
	c-0.301-2.77-0.002-5.44,0.776-7.829l12.724,7.023L67.671,138.803z M82.455,125.806l-2.291-13.12
	c2.751,0.025,5.676,0.699,8.48,2.085c2.498,1.235,4.606,2.889,6.231,4.769L82.455,125.806z M91.128,144.391
	c-2.329,1.53-4.867,2.442-7.391,2.771l-0.035-15.279l13.36,6.012C95.747,140.405,93.743,142.673,91.128,144.391z"/>
<path fill="#DC1F26" d="M104.253,151.198c-10.297,0-18.644,8.347-18.644,18.644s8.347,18.644,18.644,18.644
	s18.644-8.347,18.644-18.644S114.549,151.198,104.253,151.198z M97.845,181.213c-1.939-1.127-3.704-2.788-5.057-4.911
	c-1.205-1.89-1.941-3.923-2.231-5.923l11.679,0.528L97.845,181.213z M103.873,166.57l-6.329-8.645
	c1.993-0.963,4.342-1.52,6.859-1.52c2.242,0,4.351,0.441,6.194,1.218L103.873,166.57z M116.752,176.88
	c-1.134,1.933-2.64,3.496-4.342,4.633l-5.472-11.006l11.778-0.428C118.662,172.359,118.026,174.709,116.752,176.88z"/>
<path fill="#DC1F26" d="M53.778,155.841c-7.732,4.521-10.336,14.453-5.815,22.186c4.521,7.732,14.453,10.336,22.186,5.815
	s10.336-14.453,5.815-22.186C71.443,153.924,61.51,151.321,53.778,155.841z M62.144,181.194c-1.951,0.005-4.005-0.468-5.953-1.468
	c-1.735-0.891-3.18-2.093-4.276-3.468l9.002-4.731L62.144,181.194z M60.241,167.552l-8.548-3.713
	c1.074-1.598,2.593-3.047,4.483-4.152c1.683-0.984,3.461-1.579,5.186-1.805L60.241,167.552z M74.44,169.639
	c-0.003,1.95-0.447,3.784-1.227,5.386l-8.941-5.862l8.657-5.492C73.889,165.406,74.443,167.45,74.44,169.639z"/>
<path fill="#DC1F26" d="M138.209,163.178c-7.893,1.59-13.002,9.277-11.412,17.17s9.277,13.002,17.17,11.412
	c7.893-1.59,13.002-9.277,11.412-17.17C153.789,166.697,146.101,161.588,138.209,163.178z M137.932,187.175
	c-1.66-0.565-3.27-1.565-4.634-2.983c-1.216-1.263-2.094-2.707-2.625-4.195l9.034-1.398L137.932,187.175z M140.291,175.02
	l-6.186-5.649c1.379-1.046,3.094-1.835,5.023-2.224c1.718-0.346,3.403-0.334,4.936-0.023L140.291,175.02z M151.756,180.934
	c-0.571,1.657-1.483,3.087-2.613,4.222l-5.894-7.591l8.962-2.146C152.522,177.173,152.397,179.073,151.756,180.934z"/>
</svg>
