<svg id="Capa_1" enable-background="new 0 0 512 512" height="512" viewBox="0 0 512 512" width="512" xmlns="http://www.w3.org/2000/svg"><g><g><path d="m333.541 327.74c-5.522 0-10-4.477-10-10v-9.191c0-5.523 4.478-10 10-10s10 4.477 10 10v9.191c0 5.523-4.478 10-10 10z"/><g><path d="m423.213 292.2c-5.522 0-10-4.477-10-10v-9.192c0-5.523 4.478-10 10-10s10 4.477 10 10v9.192c0 5.523-4.478 10-10 10z"/></g><g><path d="m409.937 336.163c-5.522 0-10-4.477-10-10v-9.191c0-5.523 4.478-10 10-10s10 4.477 10 10v9.191c0 5.523-4.478 10-10 10z"/></g><g><path d="m374.702 313.953c-5.522 0-10-4.477-10-10v-9.191c0-5.523 4.478-10 10-10s10 4.477 10 10v9.191c0 5.522-4.477 10-10 10z"/></g><path d="m411.849 173.857-18.184-18.184c-2.882-2.881-7.082-3.636-10.656-2.266l-44.187-87.481c-8.933-17.686-25.276-29.626-44.841-32.76-19.562-3.133-38.818 3.104-52.829 17.114l-42.174 42.174c-14.01 14.01-20.248 33.266-17.113 52.83 3.134 19.563 15.074 35.907 32.759 44.839l87.481 44.187c-1.37 3.574-.614 7.775 2.267 10.656l18.184 18.184c7.085 7.084 16.39 10.626 25.695 10.626s18.611-3.542 25.696-10.626l37.901-37.901c6.863-6.863 10.644-15.989 10.644-25.695s-3.78-18.833-10.643-25.697zm-108.78-33.628-.741-.742c-4.513-4.513-6.625-11.046-5.947-18.396.741-8.043 4.65-15.973 11.007-22.329 5.734-5.733 12.99-9.532 20.196-10.726l40.129 79.448-51.531 51.531-18.574-9.382c.134-.132.267-.264.4-.396 20.42-20.422 22.69-51.38 5.061-69.008zm-101.456 1.891c-2.107-13.155 2.087-26.104 11.508-35.524l42.174-42.174c7.822-7.823 18.076-12.042 28.862-12.042 2.203 0 4.43.176 6.661.534 11.144 1.785 20.734 7.82 27.058 16.852-8.995 2.663-17.525 7.748-24.631 14.853-9.651 9.651-15.61 21.951-16.779 34.635-1.233 13.375 2.929 25.584 11.718 34.373l.741.742c9.833 9.833 7.563 28.102-5.059 40.724-1.769 1.768-3.664 3.351-5.669 4.735l-54.556-27.556c-11.892-6.007-19.92-16.997-22.028-30.152zm196.093 68.986-37.901 37.901c-6.37 6.37-16.734 6.372-23.106 0l-11.112-11.112 61.008-61.008 11.111 11.113c3.086 3.086 4.786 7.189 4.786 11.553s-1.7 8.467-4.786 11.553z"/><g><path d="m355.56 479.627c-4.182 0-7.995-2.709-9.405-6.636-1.391-3.874-.2-8.32 2.936-10.987 3.271-2.781 8.098-3.142 11.745-.873 3.497 2.175 5.339 6.404 4.534 10.446-.919 4.614-5.103 8.05-9.81 8.05z"/></g><path d="m502 358.575h-332.162v-14.463c0-5.523-4.478-10-10-10h-124.025c-19.748 0-35.813 16.065-35.813 35.813v.342c0 19.748 16.065 35.813 35.813 35.813h124.024c5.522 0 10-4.477 10-10v-17.505h18.921v29.953c0 38.95 31.479 70.685 70.334 71.094.096.002.191.004.287.004h50.794c5.522 0 10-4.477 10-10s-4.478-10-10-10h-50.317c-28.176 0-51.098-22.922-51.098-51.098v-29.953h283.242v29.953c0 28.175-22.922 51.098-51.098 51.098h-40.316c-5.522 0-10 4.477-10 10s4.478 10 10 10h40.793c.096 0 .191-.001.287-.004 38.855-.41 70.334-32.145 70.334-71.095v-39.953c0-5.522-4.478-9.999-10-9.999zm-482 11.691v-.342c0-8.719 7.094-15.813 15.813-15.813h60.548v31.968h-60.548c-8.719.001-15.813-7.093-15.813-15.813zm129.838 15.814h-33.477v-31.968h33.477z"/></g></g></svg>