<?xml version="1.0" encoding="iso-8859-1"?>
<!-- Generator: Adobe Illustrator 19.0.0, SVG Export Plug-In . SVG Version: 6.00 Build 0)  -->
<svg version="1.1" id="Layer_1" xmlns="http://www.w3.org/2000/svg" xmlns:xlink="http://www.w3.org/1999/xlink" x="0px" y="0px"
	 viewBox="0 0 512.001 512.001" style="enable-background:new 0 0 512.001 512.001;" xml:space="preserve">
<path style="fill:#70C449;" d="M307.395,64.578c38.781,21.791,43.629,60.856,43.629,60.856h31.51
	C372.814,61.841,307.395,64.578,307.395,64.578z"/>
<path style="fill:#FC8829;" d="M432.908,125.434h-78.932c-20.133,0-36.456,16.324-36.456,36.456l11.7,93.111l3.463,25.406
	l23.234,187.064c0,20.135,16.323,36.456,36.458,36.456h2.135c20.134,0,36.457-16.321,36.457-36.456l38.397-305.581
	C469.364,141.759,453.041,125.434,432.908,125.434z"/>
<g style="opacity:0.15;">
	<path style="fill:#231F20;" d="M380.997,467.471l-23.234-187.064l-3.463-25.406l-11.7-93.111c0-20.131,16.323-36.456,36.456-36.456
		h-25.081c-20.133,0-36.456,16.324-36.456,36.456l11.7,93.111l3.463,25.406l23.234,187.064c0,20.135,16.323,36.456,36.458,36.456
		h2.135c4.01,0,7.864-0.657,11.473-1.853C391.47,497.265,380.997,483.597,380.997,467.471z"/>
</g>
<g>
	<path style="fill:#70C449;" d="M244.661,427.312c34.508-17.921,58.081-53.984,58.081-95.554c0-43.391-25.686-80.777-62.681-97.797
		c-13.687-34.304-47.188-58.557-86.374-58.557c-1.43,0-2.85,0.044-4.264,0.109c-6.037-28.515-31.344-49.914-61.656-49.914
		c-34.812,0-63.032,28.22-63.032,63.032c0,26.123,15.891,48.533,38.533,58.094c-1.66,6.954-2.564,14.201-2.564,21.664
		c0,25.481,10.257,48.56,26.859,65.356c1.058,58.51,48.812,105.618,107.576,105.618c9.539,0,18.789-1.241,27.597-3.572"/>
	<path style="fill:#70C449;" d="M418.555,125.434c3.087-29.537,13.644-81.64,49.57-117.359c0,0-71.877,18.438-84.81,117.359H418.555
		z"/>
</g>
<g>
	<path style="fill:#231F20;" d="M492.268,239.784l-22.339-17.641l7.445-59.248c0.042-0.334,0.064-0.67,0.064-1.006
		c0-20.877-14.446-38.436-33.864-43.229c7.187-17.575,19.659-23.781,20.359-24.116c4.018-1.869,5.782-6.634,3.938-10.672
		c-1.851-4.058-6.646-5.845-10.697-3.991c-0.873,0.398-19.246,9.064-28.919,33.628c4.453-28.489,15.94-70.257,45.562-99.709
		c2.582-2.568,3.126-6.547,1.326-9.714c-1.8-3.166-5.496-4.738-9.025-3.831c-0.809,0.207-20.052,5.29-40.837,23.303
		c-15.279,13.241-33.878,35.877-44.172,72.304c-7.235-13.06-18.029-23.265-32.07-30.084c-17.753-8.621-35.466-9.291-40.473-9.291
		c-0.982,0-1.51,0.024-1.51,0.024c-3.6,0.165-6.67,2.695-7.502,6.201c-0.832,3.505,0.743,7.138,3.884,8.903
		c25.302,14.218,34.66,36.243,37.935,47.573c-18.434,5.45-31.928,22.525-31.928,42.702c0,0.337,0.022,0.673,0.064,1.006l11.7,93.112
		c0.557,4.424,4.606,7.567,9.017,7.003c4.423-0.557,7.559-4.593,7.003-9.017l-3.854-30.67h24.178c4.46,0,8.073-3.614,8.073-8.073
		c0-4.46-3.614-8.073-8.073-8.073h-26.207l-3.103-24.7h85.285c4.46,0,8.073-3.614,8.073-8.073c0-4.46-3.614-8.073-8.073-8.073
		h-87.314l-0.618-4.914c0.254-15.432,12.887-27.909,28.378-27.909h28.558h0.78h35.24h14.326c0.011,0,0.023,0.002,0.033,0.002
		c0.005,0,0.012-0.001,0.017-0.001c15.48,0.013,28.1,12.483,28.354,27.908L450.4,248.026h-71.099c-4.46,0-8.073,3.614-8.073,8.073
		c0,4.46,3.614,8.073,8.073,8.073h69.069l-3.103,24.699h-30.127c-4.46,0-8.073,3.614-8.073,8.073c0,4.46,3.614,8.073,8.073,8.073
		h28.099l-13.368,106.394H400.61c-4.46,0-8.073,3.614-8.073,8.073s3.614,8.073,8.073,8.073h27.233l-4.889,38.908
		c-0.042,0.334-0.064,0.67-0.064,1.006c0,15.65-12.733,28.382-28.383,28.382h-2.135c-15.338,0-27.866-12.23-28.361-27.449h34.446
		c4.46,0,8.073-3.614,8.073-8.073c0-4.46-3.614-8.073-8.073-8.073H362.16l-8.141-65.547h56.279c4.46,0,8.073-3.614,8.073-8.073
		c0-4.46-3.614-8.073-8.073-8.073h-58.285l-3.068-24.7h36.519c4.46,0,8.073-3.614,8.073-8.073c0-4.46-3.614-8.073-8.073-8.073
		H346.94l-6.248-50.306c-0.549-4.425-4.574-7.569-9.007-7.016c-4.424,0.549-7.565,4.581-7.016,9.007l11.93,96.06
		c-0.056,0.385-0.095,0.775-0.095,1.177c0,1.11,0.225,2.168,0.63,3.13l6.418,51.672l-12.405,11.213
		c-3.308,2.989-3.566,8.096-0.575,11.403c1.593,1.763,3.789,2.66,5.99,2.66c1.93,0,3.868-0.689,5.411-2.085l4.008-3.623
		l1.861,14.985c0.283,24.312,20.149,44.006,44.528,44.006h2.135c24.377,0,44.243-19.689,44.527-43.999l13.261-105.535l10.878,8.441
		c1.471,1.142,3.213,1.694,4.944,1.694c2.408,0,4.792-1.073,6.384-3.124c2.733-3.522,2.093-8.593-1.43-11.327l-18.436-14.306
		l12.94-102.983l14.684,11.595c1.482,1.17,3.247,1.737,4.999,1.737c2.385,0,4.748-1.053,6.341-3.07
		C496.364,247.625,495.767,242.547,492.268,239.784z M357.591,117.361c-2.28-8.856-7.881-24.607-20.95-39.451
		c14.229,5.512,29.537,16.728,35.922,39.451H357.591z M411.383,117.361H392.72c6.078-34.325,20.349-61.557,42.5-81.045
		c1.135-0.998,2.264-1.951,3.384-2.86C421.443,62.829,414.328,95.12,411.383,117.361z"/>
	<path style="fill:#231F20;" d="M246.325,228.004c-15.837-36.377-50.967-59.915-90.705-60.656
		c-9.181-29.233-36.716-49.824-67.852-49.824c-39.207,0-71.105,31.898-71.105,71.105c0,26.414,14.494,50.333,37.435,62.647
		c-0.974,5.67-1.466,11.401-1.466,17.111c0,25.685,9.551,49.957,26.963,68.705c1.323,29.245,13.487,56.538,34.459,77.158
		c21.763,21.4,50.561,33.184,81.087,33.184c9.435,0,18.819-1.141,27.895-3.388c4.328-1.072,6.968-5.45,5.896-9.778
		c-1.073-4.327-5.45-6.965-9.778-5.896c-7.806,1.934-15.885,2.915-24.012,2.915c-53.892,0-98.528-43.824-99.502-97.691
		c-0.038-2.074-0.873-4.055-2.33-5.53c-15.817-16.001-24.528-37.196-24.528-59.68c0-6.617,0.788-13.276,2.343-19.79
		c0.917-3.837-1.076-7.777-4.712-9.311c-20.412-8.619-33.601-28.503-33.601-50.657c0-30.304,24.654-54.958,54.958-54.958
		c25.812,0,48.419,18.3,53.758,43.514c0.818,3.868,4.311,6.55,8.264,6.392c1.504-0.068,2.743-0.1,3.898-0.1
		c34.955,0,65.914,20.99,78.876,53.476c0.768,1.923,2.243,3.477,4.124,4.342c35.223,16.206,57.981,51.715,57.981,90.464
		c0,33.875-16.975,64.912-44.907,83.221c-4.066-14.873-8.893-29.466-14.48-43.728c-0.058-0.16-0.116-0.321-0.184-0.478
		c-0.187-0.477-0.365-0.959-0.553-1.435c-6.307-15.875-13.563-31.348-21.697-46.339c-0.291-33.386,18.649-47.925,19.595-48.628
		c3.591-2.605,4.408-7.624,1.82-11.236c-2.596-3.625-7.642-4.459-11.265-1.861c-0.877,0.629-17.141,12.598-23.653,38.59
		c-5.454-8.712-11.21-17.235-17.279-25.536c-36.545-49.989-71.046-74.631-72.497-75.655c-3.636-2.572-8.671-1.704-11.244,1.933
		c-2.574,3.638-1.71,8.675,1.925,11.252c0.217,0.154,14.407,10.333,33.853,30.452c-13.737,0.118-23.291,4.245-23.891,4.512
		c-4.075,1.806-5.916,6.575-4.109,10.652c1.807,4.078,6.576,5.919,10.652,4.109c0.158-0.069,15.571-6.727,34.329-0.503
		c5.959,7.028,12.13,14.791,18.345,23.32c13.983,19.192,29.405,44.015,42.961,74.277c-35.658-12.374-69.319-9.334-70.979-9.173
		c-4.437,0.428-7.688,4.375-7.257,8.814c0.429,4.437,4.364,7.708,8.813,7.257c0.419-0.039,41.367-3.745,78.187,14.171
		c13.574,35.332,24.099,76.983,27.392,124.732c0.294,4.259,3.84,7.518,8.046,7.518c0.187,0,0.376-0.006,0.563-0.019
		c4.449-0.307,7.806-4.161,7.5-8.609c-1.691-24.512-5.298-48.56-10.743-71.977c35.251-20.787,56.904-58.396,56.904-99.636
		C310.816,287.795,285.606,247.419,246.325,228.004z"/>
</g>
<g style="opacity:0.15;">
	<path style="fill:#231F20;" d="M218.8,427.429c-27.411-0.651-53.279-11.602-72.84-30.837
		c-19.945-19.61-31.353-45.784-32.125-73.702c-0.018-0.672-0.288-1.313-0.755-1.797c-16.848-17.423-26.128-40.367-26.128-64.608
		c0-6.519,0.7-13.091,2.082-19.535c0.265-1.229-0.36-2.478-1.502-3.005c-22.203-10.276-36.548-32.734-36.548-57.217
		c0-15.728,5.784-30.747,16.289-42.293c0.844-0.928,0.935-2.316,0.22-3.347c-0.717-1.03-2.05-1.427-3.212-0.962
		c-23.653,9.497-39.543,33.007-39.543,58.502c0,25.407,15.126,48.209,38.533,58.094c-1.702,7.127-2.564,14.417-2.564,21.664
		c0,24.623,9.538,47.834,26.859,65.356c1.054,58.238,49.313,105.618,107.576,105.618c8.141,0,16.282-0.924,24.2-2.746
		c1.222-0.282,2.087-1.369,2.087-2.623v-3.873C221.429,428.658,220.262,427.464,218.8,427.429z"/>
</g>
<g>
</g>
<g>
</g>
<g>
</g>
<g>
</g>
<g>
</g>
<g>
</g>
<g>
</g>
<g>
</g>
<g>
</g>
<g>
</g>
<g>
</g>
<g>
</g>
<g>
</g>
<g>
</g>
<g>
</g>
</svg>
