<svg id="Filled" height="512" viewBox="0 0 512 512" width="512" xmlns="http://www.w3.org/2000/svg"><path d="m176.57 318.21a78.677 78.677 0 0 1 -.57 9.79q-5.46 1.1-10.58 1.79c-88.3 12.14-105.34-58.99-108.63-86.91a102.664 102.664 0 0 1 -.79-10.88q5.925-.7 11.48-1.07c100.29-6.91 109.28 61.3 109.09 87.28z" fill="#ced98f"/><path d="m160.569 152.569a80 80 0 0 1 -113.138-113.138z" fill="#e74444"/><path d="m137.94 129.94a48 48 0 0 1 -67.88-67.88z" fill="#c43333"/><path d="m424 256c-.336 0-.669.015-1 .025a32.01 32.01 0 0 0 -62 0c-.333-.01-.666-.025-1-.025a32 32 0 1 0 31 39.975c.333.01.666.025 1 .025s.669-.015 1-.025a32 32 0 1 0 31-39.975z" fill="#b0bb74"/><path d="m184 424h144v48h-144z" fill="#d88080"/><path d="m398.627 166.627a32 32 0 0 1 45.255 45.255l22.628 22.628a64 64 0 0 0 -90.51-90.51z" fill="#fc8d36"/><path d="m305.136 122.4a32 32 0 1 0 -43.536-43.536 32 32 0 1 0 -15.3 58.84 32 32 0 1 0 58.84-15.3z" fill="#b0bb74"/><path d="m237.265 276a24 24 0 0 0 -13.265-44v-8a24 24 0 0 0 -48 0v8a24 24 0 0 0 -13.265 44 24 24 0 0 0 13.265 44v24h48v-24a24 24 0 0 0 13.265-44z" fill="#8e9c4c"/><path d="m296 208a64 64 0 1 0 64 64 64 64 0 0 0 -64-64zm0 96a32 32 0 1 1 32-32 32 32 0 0 1 -32 32z" fill="#fde575"/><circle cx="296" cy="272" fill="#e4bc43" r="32"/><path d="m48 296h416a0 0 0 0 1 0 0v32a112 112 0 0 1 -112 112h-192a112 112 0 0 1 -112-112v-32a0 0 0 0 1 0 0z" fill="#fc9495"/><path d="m472.167 138.343a72 72 0 0 0 -101.824 0 8 8 0 0 0 0 11.314l22.627 22.627a8 8 0 0 0 11.313 0 24 24 0 0 1 33.943 33.941 8 8 0 0 0 0 11.314l22.628 22.628a8 8 0 0 0 11.314 0 72 72 0 0 0 0-101.824zm-6.061 84.45-11.473-11.474a40.01 40.01 0 0 0 -55.433-55.437l-11.483-11.482a56 56 0 0 1 78.389 78.39z"/><path d="m104 183.959a87.732 87.732 0 0 0 62.226-25.733 8 8 0 0 0 0-11.315l-113.137-113.137a8 8 0 0 0 -11.315 0 87.959 87.959 0 0 0 62.226 150.185zm-9.06-78.9-3.217 28.992a39.848 39.848 0 0 1 -25.775-25.775zm-30.753-12.682a39.882 39.882 0 0 1 6.441-18.436l15.949 15.95zm45.922 21.046 15.949 15.949a39.882 39.882 0 0 1 -18.435 6.441zm-62.365-62.365 11.412 11.411a56 56 0 0 0 78.375 78.375l11.411 11.412a72 72 0 0 1 -101.2-101.2z"/><path d="m229.683 143-19.34 19.341a8 8 0 0 0 11.314 11.314l19.343-19.339a39.991 39.991 0 1 0 74.4-29.342q1.255-1.064 2.421-2.229a40 40 0 0 0 -56.569-56.569q-1.164 1.164-2.229 2.421a40.253 40.253 0 0 0 -43.023 8.893 39.974 39.974 0 0 0 13.683 65.51zm-2.369-54.2a24.113 24.113 0 0 1 29.951-3.216 8 8 0 0 0 11.318-2.821 24 24 0 1 1 32.65 32.65 8 8 0 0 0 -2.821 11.318 24.113 24.113 0 0 1 -3.217 29.952 23.985 23.985 0 0 1 -40.919-15.648l23.548-23.549a8 8 0 1 0 -11.314-11.314l-23.546 23.545a23.987 23.987 0 0 1 -15.65-40.917z"/><path d="m464 288a40.061 40.061 0 0 0 -35.2-39.714 40.017 40.017 0 0 0 -68.518-8.663 71.917 71.917 0 0 0 -121.082-11.784 31.561 31.561 0 0 0 -7.2-2.839v-1a32 32 0 0 0 -64 0v.994a31.777 31.777 0 0 0 -19.868 15.237c-22.173-15.4-53.4-20.846-93.068-16.176a8 8 0 0 0 -7.064 7.945c0 1.34.187 29.011 13.463 56h-13.463a8 8 0 0 0 -8 8v32a120.136 120.136 0 0 0 120 120h16v24a8 8 0 0 0 8 8h144a8 8 0 0 0 8-8v-24h16a120.136 120.136 0 0 0 120-120v-32a8 8 0 0 0 -8-8zm-95.252-29.979a24.011 24.011 0 0 1 46.5 0 8.047 8.047 0 0 0 8.008 6l.369-.014c.122 0 .245-.012.371-.012a24.028 24.028 0 0 1 24 24h-81.796a72.128 72.128 0 0 0 .977-26.9 7.917 7.917 0 0 0 1.571-3.074zm-72.748-42.021a56.042 56.042 0 0 1 53.68 72h-17.035a40 40 0 1 0 -73.29 0h-17.035a56.042 56.042 0 0 1 53.68-72zm-17.88 72a24 24 0 1 1 35.76 0zm-118.045-33.515a15.916 15.916 0 0 1 15.925-14.485 8 8 0 0 0 8-8v-8a16 16 0 0 1 32 0v8a8 8 0 0 0 8 8 15.923 15.923 0 0 1 6.789 1.523 71.847 71.847 0 0 0 -4.989 46.477h-63.647a16.067 16.067 0 0 1 5.015-5.337 8 8 0 0 0 0-13.326 15.988 15.988 0 0 1 -7.168-13.337q0-.716.075-1.515zm-16.049 2.756a31.907 31.907 0 0 0 6.994 18.759 31.878 31.878 0 0 0 -6.006 12h-6.207l-61.891-49.513c29.108-.711 51.613 5.571 67.11 18.754zm-78.026-6.994 47.193 37.753h-33.52c-7.782-12.84-11.699-26.921-13.673-37.753zm254 213.753h-128v-16h128zm136-136a104.118 104.118 0 0 1 -104 104h-192a104.118 104.118 0 0 1 -104-104v-24h400z"/></svg>