<svg id="_x33_0" enable-background="new 0 0 64 64" height="512" viewBox="0 0 64 64" width="512" xmlns="http://www.w3.org/2000/svg"><g><g><g><path d="m62 50v4c0 4.42-13.43 8-30 8s-30-3.58-30-8v-4c0 4.42 13.43 8 30 8s30-3.58 30-8z" fill="#cf9e76"/></g><g><path d="m16 47c0 1.66 4.48 3 10 3h-2-4-3c-.55 0-1 .45-1 1v2c0 .55.45 1 1 1h3 4 8.59c.26 0 .52-.11.7-.29l1.74-1.74c1.38 1.21 3.98 2.03 6.97 2.03 4.42 0 8-1.79 8-4 0-.18-.02-.35-.07-.52 2.43-.68 4.07-1.99 4.07-3.48 0-.58-.25-1.13-.7-1.62l.01-.01c5.37 1.44 8.69 3.43 8.69 5.63 0 4.42-13.43 8-30 8s-30-3.58-30-8c0-2.62 4.71-4.94 12-6.4v.4c0 1.1.9 2 2 2 .27 0 .53-.05.77-.16-.5.36-.77.75-.77 1.16z" fill="#ecc19c"/></g><g><path d="m20 50v4h-3c-.55 0-1-.45-1-1v-2c0-.55.45-1 1-1z" fill="#fc6e51"/></g><g><path d="m20 50h4v4h-4z" fill="#fc6e51"/></g><g><path d="m30 51.41c0 .71.29 1.36.76 1.83s1.12.76 1.83.76h-8.59v-4h2 5l-.71.71c-.18.18-.29.44-.29.7z" fill="#fc6e51"/></g><g><path d="m33.45 47.55-2.45 2.45h-5c-5.52 0-10-1.34-10-3 0-.41.27-.8.77-1.16 0 0 .01 0 .02-.01.17-.07.33-.17.48-.29 0 0 0-.01.01-.01 1.06-.57 2.72-1.02 4.72-1.28 1.22-.16 2.58-.25 4-.25s2.77.09 4 .25c.73.1 1.41.22 2.03.36-.16 1.25.45 2.35 1.42 2.94z" fill="#ff826e"/></g><g><path d="m41.97 42.55c1.18-.35 2.56-.55 4.03-.55 3.26 0 6.07.97 7.3 2.38.45.49.7 1.04.7 1.62 0 1.49-1.64 2.8-4.07 3.48-.51-1.96-3.86-3.48-7.93-3.48-.06 0-.12 0-.18 0-.13-.37-.34-.71-.6-1 .57-.64.89-1.5.74-2.45z" fill="#a0d468"/></g><g><path d="m49.93 49.48c.05.17.07.34.07.52 0 2.21-3.58 4-8 4-2.99 0-5.59-.82-6.97-2.03l2.42-2.42c.61.38 1.36.56 2.18.38 1.15-.24 2.09-1.19 2.31-2.34.11-.57.06-1.11-.12-1.59h.18c4.07 0 7.42 1.52 7.93 3.48z" fill="#b4dd7f"/></g><g><path d="m34.01 42.19c-1.02.35-1.81 1.27-1.97 2.34 0 .03-.01.05-.01.08-.62-.14-1.3-.26-2.03-.36v-6.25c0-.55-.22-1.05-.59-1.41-.36-.37-.86-.59-1.41-.59-1.1 0-2 .9-2 2v6c-1.42 0-2.78.09-4 .25v-.01-6.24c0-.55-.22-1.05-.59-1.41-.36-.37-.86-.59-1.41-.59-1.1 0-2 .9-2 2v6c0 .55-.22 1.05-.59 1.41-.04.04-.09.08-.13.12-.01 0-.01.01-.01.01-.18.09-.34.19-.48.29-.01.01-.02.01-.02.01-.24.11-.5.16-.77.16-1.1 0-2-.9-2-2v-.4-9.55c0-3.02 1.93-5.69 4.79-6.65l1.21-.4v-21c0-1.1.45-2.1 1.17-2.83.73-.72 1.73-1.17 2.83-1.17 2.21 0 4 1.79 4 4v21l1.21.4c2.86.96 4.79 3.63 4.79 6.65v1.02 7.1l.01.01z" fill="#ccd1d9"/></g><g><path d="m41.96 42.55c.15.95-.17 1.81-.74 2.45.26.29.47.63.6 1 .18.48.23 1.02.12 1.59-.22 1.15-1.16 2.1-2.31 2.34-.82.18-1.57 0-2.18-.38l-2.42 2.42-1.74 1.74c-.18.18-.44.29-.7.29-.71 0-1.36-.29-1.83-.76s-.76-1.12-.76-1.83c0-.26.11-.52.29-.7l.71-.71 2.45-2.45c-.97-.59-1.58-1.69-1.42-2.94 0-.03.01-.05.01-.08.16-1.07.95-1.99 1.97-2.34v-.01c.08-.03.17-.06.25-.08.67-.18 1.3-.1 1.86.12.34-1.27 1.5-2.22 2.88-2.22.17 0 .35.01.52.04 1.18.2 2.16 1.14 2.41 2.31.02.07.03.13.03.2z" fill="#e6e9ed"/></g></g><g><path d="m53.843 43.481c-1.515-1.505-4.39-2.481-7.843-2.481-1.155 0-2.299.118-3.356.344-.538-1.185-1.646-2.063-2.952-2.285-.153-.026-.303-.033-.454-.041l-2.144-.857c-1.273-.509-2.094-1.723-2.094-3.093 0-1.755 1.372-3.215 3.123-3.324l7.783-.486c2.857-.179 5.094-2.561 5.094-5.422 0-1.451-.564-2.815-1.591-3.841l-.702-.702-1.414 1.414.702.702c.649.649 1.005 1.51 1.005 2.427 0 1.808-1.414 3.313-3.219 3.426l-7.783.486c-1.366.085-2.583.69-3.477 1.607-.81-2.268-2.61-4.106-4.991-4.9l-.53-.176v-20.279c0-2.757-2.243-5-5-5s-5 2.243-5 5v20.279l-.53.177c-3.272 1.091-5.47 4.141-5.47 7.589v8.742c-4.824 1.037-12 3.248-12 7.213v4c0 5.846 15.972 9 31 9s31-3.154 31-9v-4c0-2.615-3.169-4.865-9.157-6.519zm-10.856-.166c.941-.207 1.968-.315 3.013-.315 4.007 0 7 1.584 7 3 0 .809-.985 1.668-2.523 2.253-1.175-1.863-4.218-3.151-8.018-3.247-.002-.002-.003-.004-.004-.006.305-.518.484-1.091.532-1.685zm-.062 4.462c.049-.248.073-.497.075-.744 3.494.235 6 1.671 6 2.967 0 1.416-2.993 3-7 3-2.111 0-4.076-.436-5.416-1.17l1.068-1.068c.696.255 1.438.31 2.183.149 1.547-.33 2.789-1.589 3.09-3.134zm-1.972-5.214c.187.873-.217 1.482-.475 1.769l-.602.668.603.67c.252.278.648.873.483 1.726-.147.756-.782 1.397-1.544 1.56-.637.136-1.14-.064-1.452-.255l-.672-.408-4.708 4.707c-.874 0-1.586-.712-1.586-1.586l4.051-4.051-1.084-.662c-.706-.431-1.066-1.205-.942-2.021.116-.757.726-1.423 1.483-1.617.413-.105.83-.079 1.234.084l1.044.42.294-1.086c.271-1.001 1.254-1.622 2.277-1.45.775.131 1.431.761 1.596 1.532zm-11.583 10.437h-4.37v-2h4.044c-.029.136-.044.274-.044.414 0 .569.133 1.107.37 1.586zm-3.37-4c-5.851 0-8.85-1.46-9.002-1.985.023-.084.12-.19.273-.308.184-.087.355-.191.516-.312 1.25-.632 3.982-1.395 8.213-1.395 1.802 0 3.521.145 5.024.421.088.811.421 1.573.953 2.188l-1.391 1.391zm-3 2v2h-2v-2zm-4 0v2h-2v-2zm2-7.607c-.706.118-1.375.266-2 .439v-5.832c0-.552.448-1 1-1s1 .448 1 1zm8-.256c-.649-.059-1.318-.097-2-.117v-5.02c0-.552.448-1 1-1s1 .448 1 1zm7.351-3.119h.001c-.325.289-.607.629-.825 1.018-.175-.023-.351-.019-.526-.02v-1.786c.401.321.853.589 1.35.788zm-21.351-5.973c0-2.586 1.648-4.874 4.103-5.691l1.897-.633v-21.721c0-1.654 1.346-3 3-3s3 1.346 3 3v21.721l1.897.632c2.455.818 4.103 3.106 4.103 5.692v7.517c-.743.437-1.345 1.093-1.684 1.88-.102-.018-.212-.031-.316-.049v-5.393c0-1.654-1.346-3-3-3s-3 1.346-3 3v5.015c-.67.02-1.341.06-2 .121v-5.136c0-1.654-1.346-3-3-3s-3 1.346-3 3v6c0 .364-.205.668-.496.843-.035.021-.065.045-.099.067-.124.056-.26.09-.405.09-.552 0-1-.448-1-1zm-1.875 10.764c.267.944.978 1.694 1.898 2.014-.005.06-.023.116-.023.177 0 .832.523 1.527 1.399 2.092-.81.256-1.399 1.014-1.399 1.908v2c0 1.103.897 2 2 2h15.586c.526 0 1.042-.214 1.414-.586l1.128-1.127c1.673 1.083 4.159 1.713 6.872 1.713 5.014 0 8.822-2.053 8.994-4.806 2.525-.902 4.006-2.435 4.006-4.194 0-.03-.007-.058-.007-.088 4.385 1.438 6.007 3.013 6.007 4.088 0 2.923-11.032 7-29 7s-29-4.077-29-7c0-1.506 3.148-3.652 10.125-5.191zm18.875 16.191c-17.968 0-29-4.077-29-7v-.65c4.738 3.69 17.159 5.65 29 5.65s24.262-1.96 29-5.65v.65c0 2.923-11.032 7-29 7z"/><path d="m38.905 20.995 2.215 1.384c1.177.736 1.88 2.004 1.88 3.393v1.228h2v-1.229c0-2.082-1.054-3.984-2.819-5.088l-2.215-1.383c-1.858-1.161-2.966-3.161-2.966-5.351 0-2.595 1.557-4.895 3.966-5.858l1.784-.714c2.582-1.033 4.25-3.496 4.25-6.276v-.101h-2v.101c0 1.957-1.175 3.692-2.992 4.419l-1.784.714c-3.174 1.269-5.224 4.297-5.224 7.715 0 2.884 1.46 5.518 3.905 7.046z"/><path d="m41 14.485c0 1.888.901 3.69 2.412 4.823l1.988 1.492 1.199-1.6-1.987-1.491c-1.009-.757-1.612-1.962-1.612-3.224 0-1.67 1.051-3.186 2.673-3.794 3.186-1.195 5.327-4.285 5.327-7.687v-.004l-2 .004c0 2.574-1.619 4.91-4.088 5.836-2.34.878-3.912 3.146-3.912 5.645z"/><path d="m52.35 18.76 4.398 3.77c1.432 1.227 2.252 3.011 2.252 4.896 0 3.245-2.428 5.995-5.647 6.397l-9.477 1.185.248 1.984 9.477-1.185c4.218-.527 7.399-4.13 7.399-8.381 0-2.469-1.075-4.808-2.95-6.415l-4.4-3.771z"/><path d="m49 13.641c0 1.144.445 2.219 1.293 3.066l1.375-1.453c-.425-.425-.668-1.013-.668-1.613 0-.714.341-1.396.912-1.825l.688-.516c1.503-1.127 2.4-2.922 2.4-4.8v-1.5h-2v1.5c0 1.252-.599 2.448-1.6 3.2l-.688.516c-1.072.805-1.712 2.085-1.712 3.425z"/></g></g></svg>