<?xml version="1.0" encoding="iso-8859-1"?>
<!-- Generator: Adobe Illustrator 19.0.0, SVG Export Plug-In . SVG Version: 6.00 Build 0)  -->
<svg version="1.1" id="Capa_1" xmlns="http://www.w3.org/2000/svg" xmlns:xlink="http://www.w3.org/1999/xlink" x="0px" y="0px"
	 viewBox="0 0 511.999 511.999" style="enable-background:new 0 0 511.999 511.999;" xml:space="preserve">
<g>
	<circle style="fill:#FFCD6B;" cx="375.441" cy="68.261" r="25.598"/>
	<circle style="fill:#FFCD6B;" cx="51.196" cy="298.646" r="25.598"/>
	<circle style="fill:#FFCD6B;" cx="221.851" cy="375.441" r="25.598"/>
	<circle style="fill:#FFCD6B;" cx="170.655" cy="187.72" r="25.598"/>
	<circle style="fill:#FFCD6B;" cx="401.039" cy="221.851" r="25.598"/>
	<circle style="fill:#FFCD6B;" cx="358.376" cy="324.244" r="25.598"/>
	<circle style="fill:#FFCD6B;" cx="247.45" cy="477.834" r="25.598"/>
</g>
<g>
	<path style="fill:#BF7341;" d="M486.384,167.762L486.384,167.762c0,8.618-6.98,15.598-15.598,15.598l0,0
		c-13.192,0-25.846-5.239-35.172-14.565l-7.065-7.065c-9.326-9.326-14.565-21.98-14.565-35.172v-15.598h15.598
		c13.192,0,25.837,5.239,35.164,14.565l7.074,7.074C481.145,141.925,486.384,154.57,486.384,167.762z"/>
	<path style="fill:#BF7341;" d="M271.597,187.754L271.597,187.754c-8.61-0.009-15.589-6.988-15.598-15.598l0,0
		c0-13.192,5.239-25.846,14.565-35.172l7.074-7.065c9.326-9.326,21.972-14.565,35.164-14.565H328.4v15.598
		c0,13.192-5.239,25.837-14.565,35.164l-7.065,7.074C297.443,182.515,284.789,187.754,271.597,187.754z"/>
	<path style="fill:#BF7341;" d="M271.597,298.68L271.597,298.68c-8.61-0.009-15.589-6.988-15.598-15.598l0,0
		c0-13.192,5.239-25.846,14.565-35.172l7.074-7.065c9.326-9.326,21.972-14.565,35.164-14.565H328.4v15.598
		c0,13.192-5.239,25.837-14.565,35.164l-7.065,7.074C297.443,293.441,284.789,298.68,271.597,298.68z"/>
	<path style="fill:#BF7341;" d="M79.312,210.852L79.312,210.852c-6.092,6.092-15.973,6.092-22.066,0l0,0
		c-9.326-9.326-14.565-21.972-14.565-35.164v-10c0-13.192,5.239-25.837,14.565-35.164l11.033-11.033l11.033,11.033
		c9.326,9.326,14.565,21.972,14.565,35.164v10C93.877,188.881,88.638,201.526,79.312,210.852z"/>
	<path style="fill:#BF7341;" d="M140.679,432.278L140.679,432.278c0.009,8.61-6.971,15.589-15.581,15.598c-0.009,0-0.009,0-0.017,0
		l0,0c-13.192,0-25.837-5.239-35.164-14.565l-7.074-7.065c-9.326-9.326-14.565-21.98-14.565-35.172v-15.598h15.598
		c13.192,0,25.846,5.239,35.172,14.565l7.065,7.074C135.44,406.441,140.679,419.086,140.679,432.278z"/>
</g>
<g>
	<path style="fill:#F09E3E;" d="M164.955,136.558L164.955,136.558c-14.77,0-27.373-10.674-29.805-25.248l0,0
		c-2.867-17.176-2.867-34.72,0-51.896l0,0c2.432-14.574,15.035-25.248,29.805-25.248l0,0c12.663,0.102,22.842,10.444,22.748,23.107
		c-0.034,4.463-1.374,8.823-3.857,12.543l-0.529,0.802c-5.956,8.925-5.956,20.564,0,29.489l0.529,0.802
		c7.031,10.538,4.181,24.771-6.348,31.793C173.778,135.184,169.418,136.524,164.955,136.558z"/>
	<path style="fill:#F09E3E;" d="M236.724,89.824L236.724,89.824c-10.453-10.444-11.818-26.912-3.225-38.935l0,0
		c10.12-14.173,22.518-26.571,36.691-36.691l0,0c12.023-8.592,28.491-7.227,38.935,3.217l0,0c8.883,9.028,8.763,23.55-0.264,32.433
		c-3.183,3.132-7.21,5.265-11.588,6.144l-0.939,0.188c-10.521,2.108-18.746,10.333-20.854,20.854l-0.188,0.939
		c-2.492,12.424-14.574,20.47-26.998,17.987C243.926,95.08,239.907,92.947,236.724,89.824z"/>
	<path style="fill:#F09E3E;" d="M463.602,384.008L463.602,384.008c-14.77,0-27.373-10.674-29.805-25.248l0,0
		c-2.867-17.176-2.867-34.72,0-51.896l0,0c2.432-14.574,15.035-25.248,29.805-25.248l0,0c12.663,0.102,22.842,10.444,22.748,23.107
		c-0.034,4.463-1.374,8.823-3.857,12.543l-0.529,0.802c-5.956,8.925-5.956,20.564,0,29.489l0.529,0.802
		c7.031,10.538,4.181,24.771-6.348,31.793C472.425,382.634,468.064,383.974,463.602,384.008z"/>
	<path style="fill:#F09E3E;" d="M311.266,392.856L311.266,392.856c10.444-10.444,26.912-11.809,38.935-3.217l0,0
		c14.173,10.12,26.571,22.518,36.691,36.691l0,0c8.592,12.023,7.227,28.491-3.217,38.935l0,0c-9.028,8.883-23.55,8.763-32.433-0.264
		c-3.132-3.183-5.265-7.21-6.144-11.587l-0.188-0.939c-2.099-10.529-10.325-18.755-20.854-20.854l-0.939-0.188
		c-12.424-2.483-20.479-14.565-17.996-26.989C306.002,400.067,308.135,396.039,311.266,392.856z"/>
	<path style="fill:#F09E3E;" d="M198.48,254.088L198.48,254.088c10.453,10.444,11.818,26.912,3.225,38.935l0,0
		c-10.12,14.173-22.518,26.571-36.691,36.691l0,0c-12.023,8.592-28.491,7.227-38.935-3.225l0,0
		c-8.883-9.036-8.755-23.559,0.282-32.433c3.183-3.123,7.202-5.256,11.57-6.135l0.939-0.188
		c10.521-2.108,18.746-10.333,20.854-20.854l0.188-0.939c2.492-12.424,14.574-20.47,26.998-17.987
		C191.279,248.832,195.297,250.965,198.48,254.088z"/>
</g>
<path d="M190.946,74.55c9.633-14.463,5.725-34.003-8.738-43.637c-5.111-3.405-11.11-5.239-17.253-5.282
	c-18.96-0.051-35.155,13.661-38.218,32.373c-3.029,18.107-3.029,36.597,0,54.704c3.063,18.712,19.258,32.433,38.218,32.382h0.068
	c17.381-0.145,31.349-14.352,31.204-31.733c-0.051-6.135-1.894-12.117-5.307-17.219l-0.512-0.759
	c-4.036-6.058-4.036-13.943,0-20.001L190.946,74.55z M176.235,104.876l0.512,0.759c4.411,6.621,2.62,15.564-4.002,19.975
	c-2.321,1.544-5.043,2.389-7.833,2.415c-10.589,0-19.617-7.671-21.332-18.124c-2.713-16.246-2.713-32.843,0-49.089
	c1.707-10.444,10.726-18.115,21.306-18.115c7.953,0.068,14.352,6.57,14.284,14.523c-0.026,2.79-0.853,5.504-2.398,7.833
	l-0.563,0.853C168.342,77.707,168.351,93.083,176.235,104.876z"/>
<path d="M375.458,34.165c-18.849,0-34.131,15.282-34.131,34.131s15.282,34.131,34.131,34.131c18.849,0,34.131-15.282,34.131-34.131
	S394.307,34.165,375.458,34.165z M375.458,85.361c-9.429,0-17.066-7.637-17.066-17.066s7.637-17.066,17.066-17.066
	c9.429,0,17.066,7.637,17.066,17.066S384.887,85.361,375.458,85.361z"/>
<path d="M17.082,298.68c0,18.849,15.282,34.131,34.131,34.131s34.131-15.282,34.131-34.131s-15.282-34.131-34.131-34.131
	S17.082,279.831,17.082,298.68z M51.213,281.615c9.429,0,17.066,7.637,17.066,17.066c0,9.429-7.637,17.066-17.066,17.066
	s-17.066-7.637-17.066-17.066C34.148,289.252,41.785,281.615,51.213,281.615z"/>
<path d="M187.737,375.475c0,18.849,15.282,34.131,34.131,34.131S256,394.324,256,375.475s-15.282-34.131-34.131-34.131
	S187.737,356.626,187.737,375.475z M221.869,358.41c9.429,0,17.066,7.637,17.066,17.066s-7.637,17.066-17.066,17.066
	c-9.429,0-17.066-7.637-17.066-17.066S212.44,358.41,221.869,358.41z"/>
<path d="M170.672,153.623c-18.849,0-34.131,15.282-34.131,34.131s15.282,34.131,34.131,34.131s34.131-15.282,34.131-34.131
	S189.521,153.623,170.672,153.623z M170.672,204.82c-9.429,0-17.066-7.637-17.066-17.066c0-9.429,7.637-17.066,17.066-17.066
	s17.066,7.637,17.066,17.066C187.737,197.183,180.101,204.82,170.672,204.82z"/>
<path d="M435.188,221.885c0-18.849-15.282-34.131-34.131-34.131s-34.131,15.282-34.131,34.131s15.282,34.131,34.131,34.131
	S435.188,240.734,435.188,221.885z M383.991,221.885c0-9.429,7.637-17.066,17.066-17.066c9.429,0,17.066,7.637,17.066,17.066
	c0,9.429-7.637,17.066-17.066,17.066C391.628,238.951,383.991,231.314,383.991,221.885z"/>
<path d="M358.393,358.41c18.849,0,34.131-15.282,34.131-34.131s-15.282-34.131-34.131-34.131s-34.131,15.282-34.131,34.131
	S339.544,358.41,358.393,358.41z M358.393,307.213c9.429,0,17.066,7.637,17.066,17.066s-7.637,17.066-17.066,17.066
	s-17.066-7.637-17.066-17.066S348.964,307.213,358.393,307.213z"/>
<path d="M247.467,443.737c-18.849,0-34.131,15.282-34.131,34.131s15.282,34.131,34.131,34.131s34.131-15.282,34.131-34.131
	S266.316,443.737,247.467,443.737z M247.467,494.934c-9.429,0-17.066-7.637-17.066-17.066c0-9.429,7.637-17.066,17.066-17.066
	s17.066,7.637,17.066,17.066C264.532,487.297,256.896,494.934,247.467,494.934z"/>
<path d="M470.786,119.492c-10.905-10.965-25.743-17.108-41.205-17.066h-15.598c-4.71,0-8.533,3.823-8.533,8.533v15.598
	c-0.043,15.461,6.101,30.3,17.066,41.205l7.065,7.065c10.905,10.965,25.743,17.108,41.205,17.066
	c13.32-0.017,24.114-10.811,24.131-24.131c0.043-15.461-6.101-30.3-17.066-41.205L470.786,119.492z M470.786,174.827
	c-10.93,0.026-21.426-4.318-29.139-12.065l-7.065-7.065c-7.748-7.714-12.091-18.209-12.065-29.139v-7.065h7.065
	c10.93-0.026,21.426,4.318,29.139,12.065l7.065,7.065c7.748,7.714,12.091,18.209,12.065,29.139
	C477.851,171.661,474.686,174.827,470.786,174.827L470.786,174.827z"/>
<path d="M328.4,106.821h-15.598c-15.461-0.043-30.3,6.101-41.205,17.066l-7.065,7.065c-10.965,10.905-17.108,25.743-17.066,41.205
	c0.017,13.32,10.811,24.114,24.131,24.131c15.461,0.043,30.3-6.101,41.205-17.066l7.065-7.065
	c10.965-10.905,17.108-25.743,17.066-41.205v-15.598C336.933,110.644,333.11,106.821,328.4,106.821z M319.867,130.952
	c0.026,10.93-4.318,21.426-12.065,29.139l-7.065,7.065c-7.714,7.748-18.209,12.091-29.139,12.065c-3.899,0-7.065-3.166-7.065-7.065
	c-0.026-10.93,4.318-21.426,12.065-29.139l7.065-7.065c7.714-7.748,18.209-12.091,29.139-12.065h7.065V130.952z"/>
<path d="M319.867,283.082c10.965-10.905,17.108-25.743,17.066-41.205V226.28c0-4.71-3.823-8.533-8.533-8.533h-15.598
	c-15.461-0.043-30.3,6.101-41.205,17.066l-7.065,7.065c-10.965,10.905-17.108,25.743-17.066,41.205
	c0.017,13.32,10.811,24.114,24.131,24.131c15.461,0.043,30.3-6.101,41.205-17.066L319.867,283.082z M300.737,278.082
	c-7.714,7.748-18.209,12.091-29.139,12.065c-3.899,0-7.065-3.166-7.065-7.065c-0.026-10.93,4.318-21.426,12.065-29.139l7.065-7.065
	c7.714-7.748,18.209-12.091,29.139-12.065h7.065v7.065c0.026,10.93-4.318,21.426-12.065,29.139L300.737,278.082z"/>
<path d="M68.279,223.942c6.4,0.017,12.543-2.526,17.066-7.057c10.965-10.905,17.108-25.735,17.066-41.196v-10
	c0.043-15.461-6.101-30.291-17.066-41.196L74.311,113.46c-3.336-3.328-8.738-3.328-12.065,0l-11.033,11.033
	c-10.965,10.905-17.108,25.735-17.066,41.196v10c-0.043,15.461,6.101,30.291,17.066,41.196
	C55.736,221.416,61.879,223.959,68.279,223.942z M51.213,165.689c-0.026-10.93,4.318-21.417,12.065-29.131l5-5l5,5
	c7.748,7.714,12.091,18.2,12.065,29.131v10c0.026,10.93-4.318,21.417-12.065,29.131c-2.765,2.748-7.236,2.748-10,0
	c-7.748-7.714-12.091-18.2-12.065-29.131V165.689z"/>
<path d="M83.877,439.343c10.905,10.965,25.743,17.108,41.205,17.066c13.32-0.009,24.122-10.811,24.131-24.131
	c0.043-15.461-6.101-30.3-17.066-41.205l-7.065-7.065c-10.905-10.965-25.743-17.108-41.205-17.066H68.279
	c-4.71,0-8.533,3.823-8.533,8.533v15.598c-0.043,15.461,6.101,30.3,17.066,41.205L83.877,439.343z M76.812,384.008h7.065
	c10.93-0.026,21.426,4.318,29.139,12.065l7.065,7.065c7.748,7.714,12.091,18.209,12.065,29.139c0,3.899-3.166,7.065-7.065,7.065
	c-10.93,0.026-21.426-4.318-29.139-12.065l-7.065-7.065c-7.748-7.714-12.091-18.209-12.065-29.139
	C76.812,391.073,76.812,384.008,76.812,384.008z"/>
<path d="M265.232,7.261c-14.949,10.657-28.013,23.721-38.67,38.67c-11.067,15.393-9.318,36.546,4.121,49.917l0.051,0.051
	c5.794,5.802,13.652,9.07,21.852,9.087c3.183-0.009,6.348-0.495,9.386-1.434c11.101-3.302,19.429-12.518,21.605-23.892l0.205-0.973
	c1.434-7.176,7.065-12.765,14.25-14.147l0.913-0.188c17.04-3.413,28.09-19.992,24.677-37.032c-1.203-6.024-4.147-11.57-8.465-15.939
	C301.786-2.057,280.625-3.806,265.232,7.261z M306.539,37.731c-1.519,5.086-5.751,8.908-10.965,9.898l-0.913,0.188
	c-13.917,2.73-24.805,13.601-27.569,27.51l-0.205,0.973c-1.561,7.799-9.147,12.85-16.938,11.289
	c-2.739-0.546-5.256-1.877-7.253-3.831c-7.509-7.483-8.473-19.31-2.287-27.911c9.565-13.414,21.289-25.138,34.703-34.703
	c8.592-6.186,20.402-5.231,27.894,2.253C306.77,27.142,308.126,32.671,306.539,37.731z"/>
<path d="M463.602,392.541h0.068c17.381-0.145,31.349-14.352,31.204-31.733c-0.051-6.135-1.894-12.117-5.307-17.219l-0.512-0.759
	c-4.036-6.058-4.036-13.943,0-20.001l0.555-0.853c9.625-14.472,5.691-34.003-8.78-43.628c-5.111-3.396-11.093-5.222-17.228-5.265
	c-18.96-0.051-35.155,13.661-38.218,32.373c-3.029,18.107-3.029,36.597,0,54.704C428.447,378.871,444.642,392.592,463.602,392.541z
	 M442.21,308.263c1.707-10.453,10.734-18.124,21.323-18.115c7.953,0.068,14.352,6.57,14.284,14.523
	c-0.026,2.79-0.853,5.504-2.398,7.833l-0.563,0.853c-7.884,11.801-7.884,27.194,0,38.995l0.512,0.759
	c4.394,6.63,2.585,15.564-4.036,19.967c-2.304,1.527-5,2.364-7.773,2.398c-10.589,0-19.617-7.671-21.332-18.124
	C439.505,341.105,439.505,324.517,442.21,308.263z"/>
<path d="M393.829,421.373c-10.657-14.949-23.721-28.013-38.671-38.671c-15.393-11.067-36.546-9.326-49.917,4.121l-0.051,0.051
	c-12.185,12.39-12.023,32.305,0.367,44.49c4.352,4.283,9.864,7.21,15.845,8.413l0.973,0.205c7.159,1.416,12.748,7.022,14.156,14.181
	l0.188,0.913c2.184,11.4,10.546,20.624,21.673,23.917c3.038,0.947,6.203,1.425,9.386,1.434c8.234-0.017,16.127-3.302,21.938-9.139
	C403.156,457.919,404.896,436.766,393.829,421.373z M377.694,459.182c-5.674,5.58-14.804,5.495-20.385-0.179
	c-1.963-2.005-3.302-4.531-3.848-7.287l-0.188-0.913c-2.739-13.908-13.61-24.779-27.51-27.544l-0.973-0.205
	c-7.799-1.553-12.859-9.139-11.297-16.929c0.546-2.739,1.877-5.265,3.831-7.261c7.483-7.509,19.31-8.473,27.919-2.287
	c13.413,9.565,25.138,21.289,34.703,34.703C386.141,439.872,385.186,451.69,377.694,459.182z"/>
<path d="M112.35,301.172c-3.498,11.067-0.538,23.158,7.679,31.358c13.371,13.439,34.524,15.188,49.925,4.121
	c14.949-10.657,28.013-23.721,38.67-38.671c11.067-15.402,9.318-36.554-4.121-49.925h-0.051
	c-12.39-12.185-32.305-12.023-44.49,0.367c-4.283,4.352-7.21,9.864-8.413,15.845l-0.205,0.973
	c-1.416,7.159-7.022,12.748-14.181,14.156l-0.913,0.188C124.877,281.751,115.661,290.079,112.35,301.172z M128.665,306.181
	c1.519-5.086,5.751-8.908,10.965-9.898l0.913-0.188c13.917-2.73,24.805-13.601,27.569-27.51l0.205-0.973
	c0.998-5.205,4.812-9.429,9.889-10.939c1.391-0.435,2.833-0.648,4.283-0.657c3.746,0.009,7.33,1.493,9.983,4.13
	c7.509,7.483,8.473,19.31,2.287,27.919c-9.565,13.413-21.289,25.138-34.703,34.703c-8.592,6.178-20.402,5.222-27.894-2.253
	C128.418,316.761,127.07,311.24,128.665,306.181z"/>
<g>
</g>
<g>
</g>
<g>
</g>
<g>
</g>
<g>
</g>
<g>
</g>
<g>
</g>
<g>
</g>
<g>
</g>
<g>
</g>
<g>
</g>
<g>
</g>
<g>
</g>
<g>
</g>
<g>
</g>
</svg>
