<?xml version="1.0" encoding="iso-8859-1"?>
<!-- Generator: Adobe Illustrator 19.0.0, SVG Export Plug-In . SVG Version: 6.00 Build 0)  -->
<svg version="1.1" id="Capa_1" xmlns="http://www.w3.org/2000/svg" xmlns:xlink="http://www.w3.org/1999/xlink" x="0px" y="0px"
	 viewBox="0 0 480.032 480.032" style="enable-background:new 0 0 480.032 480.032;" xml:space="preserve">
<g>
	<g>
		<path d="M178.52,89.424c-3.785-5.678-3.785-13.074,0-18.752l0.504-0.776c9.036-13.56,5.368-31.877-8.192-40.913
			c-4.793-3.194-10.416-4.915-16.176-4.951c-17.775-0.049-32.957,12.811-35.832,30.352c-2.84,16.978-2.84,34.31,0,51.288
			c2.871,17.544,18.054,30.409,35.832,30.36h0.064c16.294-0.138,29.391-13.46,29.252-29.754c-0.049-5.75-1.777-11.361-4.972-16.142
			L178.52,89.424z M165.232,98.328l0.48,0.712c4.136,6.206,2.458,14.59-3.749,18.726c-2.178,1.451-4.73,2.239-7.347,2.266
			c-9.928-0.002-18.394-7.195-20-16.992c-2.544-15.236-2.544-30.788,0-46.024c1.599-9.79,10.056-16.98,19.976-16.984
			c7.458,0.063,13.452,6.16,13.389,13.618c-0.022,2.613-0.802,5.163-2.245,7.342l-0.528,0.8
			C157.83,72.856,157.84,87.273,165.232,98.328z"/>
	</g>
</g>
<g>
	<g>
		<path d="M352.016,32.032c-17.673,0-32,14.327-32,32s14.327,32,32,32c17.673,0,32-14.327,32-32S369.689,32.032,352.016,32.032z
			 M352.016,80.032c-8.837,0-16-7.163-16-16s7.163-16,16-16s16,7.163,16,16S360.852,80.032,352.016,80.032z"/>
	</g>
</g>
<g>
	<g>
		<path d="M48.016,248.032c-17.673,0-32,14.327-32,32c0,17.673,14.327,32,32,32s32-14.327,32-32
			C80.016,262.359,65.689,248.032,48.016,248.032z M48.016,296.032c-8.837,0-16-7.163-16-16s7.163-16,16-16s16,7.163,16,16
			S56.852,296.032,48.016,296.032z"/>
	</g>
</g>
<g>
	<g>
		<path d="M208.016,320.032c-17.673,0-32,14.327-32,32c0,17.673,14.327,32,32,32s32-14.327,32-32
			C240.016,334.359,225.689,320.032,208.016,320.032z M208.016,368.032c-8.837,0-16-7.163-16-16s7.163-16,16-16s16,7.163,16,16
			S216.852,368.032,208.016,368.032z"/>
	</g>
</g>
<g>
	<g>
		<path d="M160.016,144.032c-17.673,0-32,14.327-32,32s14.327,32,32,32s32-14.327,32-32S177.689,144.032,160.016,144.032z
			 M160.016,192.032c-8.837,0-16-7.163-16-16s7.163-16,16-16s16,7.163,16,16S168.852,192.032,160.016,192.032z"/>
	</g>
</g>
<g>
	<g>
		<path d="M376.016,176.032c-17.673,0-32,14.327-32,32s14.327,32,32,32c17.673,0,32-14.327,32-32S393.689,176.032,376.016,176.032z
			 M376.016,224.032c-8.837,0-16-7.163-16-16s7.163-16,16-16s16,7.163,16,16S384.852,224.032,376.016,224.032z"/>
	</g>
</g>
<g>
	<g>
		<path d="M336.016,272.032c-17.673,0-32,14.327-32,32c0,17.673,14.327,32,32,32c17.673,0,32-14.327,32-32
			C368.016,286.359,353.689,272.032,336.016,272.032z M336.016,320.032c-8.837,0-16-7.163-16-16s7.163-16,16-16s16,7.163,16,16
			S344.852,320.032,336.016,320.032z"/>
	</g>
</g>
<g>
	<g>
		<path d="M232.016,416.032c-17.673,0-32,14.327-32,32c0,17.673,14.327,32,32,32c17.673,0,32-14.327,32-32
			C264.016,430.359,249.689,416.032,232.016,416.032z M232.016,464.032c-8.837,0-16-7.163-16-16s7.163-16,16-16s16,7.163,16,16
			S240.852,464.032,232.016,464.032z"/>
	</g>
</g>
<g>
	<g>
		<path d="M448.016,118.656l-6.624-6.624c-10.225-10.276-24.135-16.037-38.632-16h-14.624c-4.418,0-8,3.582-8,8v14.624
			c-0.037,14.497,5.724,28.407,16,38.632l6.624,6.624c10.225,10.276,24.135,16.037,38.632,16
			c12.489-0.013,22.611-10.135,22.624-22.624C464.053,142.791,458.292,128.881,448.016,118.656z M441.392,163.912
			c-10.252,0.027-20.088-4.046-27.32-11.312l-6.624-6.624c-7.266-7.232-11.339-17.068-11.312-27.32v-6.624h6.624
			c10.252-0.027,20.088,4.046,27.32,11.312l6.624,6.624c7.266,7.232,11.339,17.068,11.312,27.32
			C448.016,160.946,445.05,163.912,441.392,163.912z"/>
	</g>
</g>
<g>
	<g>
		<path d="M307.896,100.152h-14.624c-14.497-0.037-28.407,5.724-38.632,16l-6.624,6.624c-10.276,10.225-16.037,24.135-16,38.632
			c0.018,12.488,10.136,22.606,22.624,22.624c14.497,0.037,28.406-5.724,38.632-16l6.624-6.624
			c10.276-10.225,16.037-24.135,16-38.632v-14.624C315.896,103.733,312.314,100.152,307.896,100.152z M299.896,122.776
			c0.027,10.252-4.046,20.088-11.312,27.32l-6.624,6.624c-7.232,7.266-17.068,11.339-27.32,11.312c-3.658,0-6.624-2.966-6.624-6.624
			c-0.027-10.252,4.046-20.088,11.312-27.32l6.624-6.624c7.232-7.266,17.068-11.339,27.32-11.312h6.624V122.776z"/>
	</g>
</g>
<g>
	<g>
		<path d="M307.896,204.152h-14.624c-14.497-0.037-28.407,5.724-38.632,16l-6.624,6.624c-10.276,10.225-16.037,24.135-16,38.632
			c0.018,12.488,10.136,22.606,22.624,22.624c14.497,0.037,28.406-5.724,38.632-16l6.624-6.624
			c10.276-10.225,16.037-24.135,16-38.632v-14.624C315.896,207.733,312.314,204.152,307.896,204.152z M299.896,226.776
			c0.027,10.252-4.046,20.088-11.312,27.32l-6.624,6.624c-7.232,7.266-17.068,11.339-27.32,11.312c-3.658,0-6.624-2.966-6.624-6.624
			c-0.027-10.252,4.046-20.088,11.312-27.32l6.624-6.624c7.232-7.266,17.068-11.339,27.32-11.312h6.624V226.776z"/>
	</g>
</g>
<g>
	<g>
		<path d="M80.016,116.72l-10.344-10.344c-3.124-3.123-8.188-3.123-11.312,0L48.016,116.72c-10.279,10.22-16.04,24.129-16,38.624
			v9.376c-0.04,14.495,5.721,28.404,16,38.624c4.24,4.248,9.998,6.629,16,6.616c6.002,0.013,11.76-2.368,16-6.616
			c10.279-10.221,16.04-24.129,16-38.624v-9.376C96.056,140.849,90.294,126.94,80.016,116.72z M80.016,164.72
			c0.025,10.249-4.048,20.082-11.312,27.312c-2.595,2.575-6.781,2.575-9.376,0c-7.264-7.23-11.337-17.063-11.312-27.312v-9.376
			c-0.025-10.249,4.048-20.082,11.312-27.312l4.688-4.688l4.688,4.688c7.264,7.23,11.337,17.063,11.312,27.312V164.72z"/>
	</g>
</g>
<g>
	<g>
		<path d="M123.896,366.656l-6.624-6.624c-10.225-10.276-24.135-16.037-38.632-16H64.016c-4.418,0-8,3.582-8,8v14.624
			c-0.037,14.497,5.724,28.407,16,38.632l6.624,6.624c10.225,10.276,24.135,16.037,38.632,16
			c12.491-0.009,22.615-10.133,22.624-22.624C139.933,390.791,134.172,376.881,123.896,366.656z M117.272,411.912
			c-10.252,0.027-20.088-4.046-27.32-11.312l-6.624-6.624c-7.266-7.232-11.339-17.068-11.312-27.32v-6.624h6.624
			c10.252-0.027,20.088,4.046,27.32,11.312l6.624,6.624c7.266,7.232,11.339,17.068,11.312,27.32
			C123.896,408.946,120.93,411.912,117.272,411.912z"/>
	</g>
</g>
<g>
	<g>
		<path d="M303.42,25.615c-1.131-5.65-3.891-10.844-7.94-14.943C282.94-1.93,263.108-3.567,248.672,6.808
			c-14.014,9.99-26.266,22.242-36.256,36.256c-10.374,14.434-8.737,34.263,3.864,46.8l0.048,0.048
			c5.433,5.438,12.8,8.502,20.488,8.52c2.984-0.007,5.95-0.46,8.8-1.344c10.406-3.097,18.218-11.736,20.256-22.4l0.192-0.912
			c1.341-6.727,6.624-11.971,13.36-13.264l0.856-0.176C296.257,57.138,306.617,41.593,303.42,25.615z M287.4,35.376
			c-1.423,4.772-5.388,8.351-10.28,9.28l-0.856,0.176c-13.047,2.563-23.256,12.75-25.848,25.792l-0.192,0.912
			c-1.462,7.309-8.572,12.049-15.881,10.587c-2.567-0.513-4.929-1.762-6.799-3.595c-7.039-7.015-7.948-18.101-2.144-26.168
			c8.966-12.574,19.962-23.57,32.536-32.536c8.058-5.796,19.128-4.902,26.152,2.112C287.614,25.446,288.891,30.629,287.4,35.376z"/>
	</g>
</g>
<g>
	<g>
		<path d="M458.52,321.424c-3.785-5.678-3.785-13.074,0-18.752l0.52-0.8c9.022-13.569,5.337-31.882-8.232-40.905
			c-4.788-3.184-10.402-4.899-16.152-4.935c-17.775-0.049-32.957,12.811-35.832,30.352c-2.84,16.978-2.84,34.31,0,51.288
			c2.871,17.544,18.054,30.409,35.832,30.36h0.064c16.294-0.138,29.391-13.46,29.252-29.754c-0.049-5.75-1.777-11.361-4.972-16.142
			L458.52,321.424z M445.208,330.352l0.48,0.712c4.123,6.215,2.427,14.595-3.788,18.718c-2.162,1.434-4.691,2.215-7.284,2.25
			c-9.928-0.002-18.394-7.195-20-16.992c-2.549-15.235-2.555-30.787-0.016-46.024c1.6-9.796,10.066-16.988,19.992-16.984
			c7.458,0.063,13.452,6.16,13.389,13.618c-0.022,2.613-0.802,5.163-2.245,7.342l-0.528,0.8
			C437.812,304.856,437.812,319.287,445.208,330.352z"/>
	</g>
</g>
<g>
	<g>
		<path d="M369.24,395.064c-9.99-14.014-22.242-26.266-36.256-36.256c-14.433-10.377-34.265-8.74-46.8,3.864l-0.048,0.048
			c-11.424,11.613-11.271,30.288,0.342,41.712c4.082,4.016,9.245,6.757,14.858,7.888l0.912,0.192
			c6.712,1.329,11.955,6.582,13.272,13.296l0.176,0.856c2.044,10.688,9.885,19.34,20.32,22.424c2.85,0.885,5.816,1.338,8.8,1.344
			c7.721-0.016,15.119-3.098,20.568-8.568C377.982,429.325,379.616,409.495,369.24,395.064z M354.112,430.512
			c-5.324,5.229-13.879,5.153-19.108-0.171c-1.843-1.876-3.098-4.249-3.612-6.829l-0.176-0.856
			c-2.572-13.038-12.757-23.236-25.792-25.824l-0.912-0.192c-7.31-1.458-12.053-8.566-10.595-15.876
			c0.513-2.569,1.762-4.933,3.595-6.804c7.019-7.037,18.106-7.946,26.176-2.144c12.574,8.966,23.57,19.962,32.536,32.536
			C362.031,412.409,361.137,423.49,354.112,430.512z"/>
	</g>
</g>
<g>
	<g>
		<path d="M191.736,232.568h-0.048c-11.613-11.424-30.288-11.271-41.712,0.342c-4.016,4.082-6.757,9.245-7.888,14.858l-0.192,0.912
			c-1.329,6.712-6.582,11.955-13.296,13.272l-0.856,0.176c-10.661,2.036-19.301,9.84-22.408,20.24
			c-3.278,10.376-0.502,21.713,7.2,29.4c12.539,12.602,32.372,14.239,46.808,3.864c14.014-9.99,26.266-22.242,36.256-36.256
			C205.975,264.939,204.338,245.107,191.736,232.568z M182.6,270.08c-8.966,12.574-19.962,23.57-32.536,32.536
			c-8.06,5.789-19.126,4.896-26.152-2.112c-3.515-3.517-4.779-8.699-3.28-13.44c1.423-4.772,5.388-8.351,10.28-9.28l0.856-0.176
			c13.047-2.563,23.256-12.75,25.848-25.792l0.192-0.912c0.932-4.882,4.508-8.838,9.272-10.256c1.3-0.404,2.654-0.612,4.016-0.616
			c3.508,0.006,6.873,1.398,9.36,3.872C187.493,250.922,188.401,262.009,182.6,270.08z"/>
	</g>
</g>
<g>
</g>
<g>
</g>
<g>
</g>
<g>
</g>
<g>
</g>
<g>
</g>
<g>
</g>
<g>
</g>
<g>
</g>
<g>
</g>
<g>
</g>
<g>
</g>
<g>
</g>
<g>
</g>
<g>
</g>
</svg>
