<?xml version="1.0"?>
<svg xmlns="http://www.w3.org/2000/svg" id="Outline" viewBox="0 0 512 512" width="512" height="512"><path d="M495.709,293.861,458.566,160H464a8,8,0,0,0,8-8V104a8,8,0,0,0-8-8h-8V72a8,8,0,0,0-8-8h-2.938l-5.124-40.992A8,8,0,0,0,432,16H400a8,8,0,0,0-7.938,7.008L386.938,64H384a8,8,0,0,0-8,8V96h-8a8,8,0,0,0-8,8v48a8,8,0,0,0,8,8h5.475l-22.189,79.879a39.763,39.763,0,0,0-14.3-23.733L312,196.155V174.624A24.039,24.039,0,0,0,328,152V136a24.028,24.028,0,0,0-24-24H208a24.028,24.028,0,0,0-24,24v16a24.039,24.039,0,0,0,16,22.624v21.531l-24.987,19.991a39.763,39.763,0,0,0-14.688,26.192c-17.412-28.475-25.5-76.04-29.241-114.543A24.031,24.031,0,0,0,152,104V88a24.028,24.028,0,0,0-24-24H64A24.028,24.028,0,0,0,40,88v16a24.031,24.031,0,0,0,20.916,23.8c-3.947,40.582-12.7,91.25-32.135,119A70.988,70.988,0,0,0,16,287.739V456a40.045,40.045,0,0,0,40,40h80a39.964,39.964,0,0,0,32-16.028A39.964,39.964,0,0,0,200,496H312a39.964,39.964,0,0,0,32-16.028A39.964,39.964,0,0,0,376,496h80a40.045,40.045,0,0,0,40-40V296A8.013,8.013,0,0,0,495.709,293.861ZM381.192,192H450.84l26.638,96H354.525ZM352,304H480V416H352ZM407.062,32h17.876l4,32H403.062ZM392,80h48V96H392Zm-16,32h80v32H376Zm65.961,48,4.44,16H385.636l4.445-16ZM200,136a8.009,8.009,0,0,1,8-8h96a8.009,8.009,0,0,1,8,8v16a8.009,8.009,0,0,1-8,8H208a8.009,8.009,0,0,1-8-8ZM160,432H32V288H160ZM116.765,144H75.235c.663-5.462,1.238-10.816,1.733-16h38.064C115.527,133.184,116.1,138.538,116.765,144ZM56,104V88a8.009,8.009,0,0,1,8-8h64a8.009,8.009,0,0,1,8,8v16a8.009,8.009,0,0,1-8,8H64A8.009,8.009,0,0,1,56,104Zm17.062,56h45.876c5.337,35.289,14.712,72.46,31.173,95.973A54.279,54.279,0,0,1,157.775,272H34.225a54.285,54.285,0,0,1,7.664-16.028C58.35,232.459,67.725,195.289,73.062,160ZM136,480H56a24.028,24.028,0,0,1-24-24v-8H160v8A24.028,24.028,0,0,1,136,480Zm176,0H200a24.028,24.028,0,0,1-24-24V247.38a23.878,23.878,0,0,1,9.008-18.74L213,206.247A8,8,0,0,0,216,200V176h80v24a8,8,0,0,0,3,6.247l27.99,22.393h0A23.88,23.88,0,0,1,336,247.38V456A24.028,24.028,0,0,1,312,480Zm144,0H376a24.028,24.028,0,0,1-24-24V432H480v24A24.028,24.028,0,0,1,456,480Z"/><path d="M312,240H200a8,8,0,0,0-8,8V440a8,8,0,0,0,8,8H312a8,8,0,0,0,8-8V248A8,8,0,0,0,312,240Zm-8,192H208V256h96Z"/><path d="M56,368a40,40,0,1,0,59.937-34.655A23.863,23.863,0,0,0,120,320a8,8,0,0,0-16,0,8,8,0,0,1-16,0,8,8,0,0,0-16,0,23.863,23.863,0,0,0,4.063,13.345A40.015,40.015,0,0,0,56,368Zm40-24a24,24,0,1,1-24,24A24.028,24.028,0,0,1,96,344Z"/><path d="M240,312h32a8,8,0,0,0,0-16H240a8,8,0,0,0,0,16Z"/><path d="M240,392h32a8,8,0,0,0,0-16H240a8,8,0,0,0,0,16Z"/><path d="M240,352h32a8,8,0,0,0,0-16H240a8,8,0,0,0,0,16Z"/><path d="M416,328c-22.056,0-40,14.355-40,32s17.944,32,40,32,40-14.355,40-32S438.056,328,416,328Zm0,48c-13.01,0-24-7.327-24-16s10.99-16,24-16,24,7.327,24,16S429.01,376,416,376Z"/></svg>
