<?xml version="1.0" encoding="iso-8859-1"?>
<!-- Generator: Adobe Illustrator 19.0.0, SVG Export Plug-In . SVG Version: 6.00 Build 0)  -->
<svg version="1.1" id="Layer_1" xmlns="http://www.w3.org/2000/svg" xmlns:xlink="http://www.w3.org/1999/xlink" x="0px" y="0px"
	 viewBox="0 0 512.002 512.002" style="enable-background:new 0 0 512.002 512.002;" xml:space="preserve">
<g>
	<g>
		<g>
			<path d="M492.269,239.785l-22.339-17.641l7.445-59.248c0.042-0.334,0.063-0.67,0.063-1.006c0-20.877-14.446-38.436-33.864-43.229
				c7.187-17.575,19.659-23.781,20.359-24.116c4.018-1.869,5.782-6.634,3.938-10.672c-1.852-4.058-6.646-5.845-10.697-3.991
				c-0.873,0.398-19.247,9.064-28.919,33.628c4.453-28.489,15.94-70.257,45.562-99.71c2.582-2.568,3.126-6.547,1.326-9.714
				c-1.8-3.166-5.498-4.738-9.025-3.831c-0.81,0.207-20.052,5.29-40.837,23.303c-15.279,13.241-33.878,35.877-44.172,72.304
				c-7.235-13.06-18.029-23.265-32.07-30.084c-17.753-8.621-35.466-9.291-40.473-9.291c-0.982,0-1.51,0.024-1.51,0.024
				c-3.6,0.165-6.67,2.695-7.502,6.201c-0.832,3.505,0.743,7.138,3.884,8.903c25.302,14.218,34.66,36.242,37.935,47.573
				c-18.434,5.45-31.928,22.525-31.928,42.702c0,0.337,0.022,0.673,0.063,1.006l11.7,93.112c0.557,4.424,4.601,7.567,9.017,7.003
				c4.423-0.556,7.559-4.593,7.003-9.017l-3.854-30.67h24.178c4.46,0,8.073-3.614,8.073-8.073c0-4.46-3.614-8.073-8.073-8.073
				h-26.207l-3.103-24.7h85.285c4.46,0,8.073-3.614,8.073-8.073s-3.614-8.073-8.073-8.073h-87.314l-0.618-4.914
				c0.254-15.432,12.887-27.909,28.378-27.909h28.558h0.78h35.24h14.325c0.011,0,0.023,0.002,0.033,0.002
				c0.005,0,0.011-0.001,0.017-0.001c15.481,0.013,28.1,12.483,28.355,27.908l-10.883,86.609h-71.099
				c-4.46,0-8.073,3.614-8.073,8.073c0,4.46,3.614,8.073,8.073,8.073h69.071l-3.103,24.699h-30.128c-4.46,0-8.073,3.614-8.073,8.073
				c0,4.46,3.614,8.073,8.073,8.073h28.099l-13.368,106.394h-29.262c-4.46,0-8.073,3.614-8.073,8.073
				c0,4.46,3.614,8.073,8.073,8.073h27.234l-4.889,38.908c-0.042,0.334-0.063,0.67-0.063,1.006c0,15.65-12.733,28.382-28.383,28.382
				h-2.135c-15.338,0-27.866-12.23-28.361-27.449h34.446c4.46,0,8.073-3.614,8.073-8.073c0-4.46-3.614-8.073-8.073-8.073h-36.297
				l-8.141-65.547h56.278c4.46,0,8.073-3.614,8.073-8.073c0-4.46-3.614-8.073-8.073-8.073h-58.285l-3.068-24.7h36.519
				c4.46,0,8.073-3.614,8.073-8.073c0-4.46-3.614-8.073-8.073-8.073h-38.525l-6.248-50.306c-0.55-4.425-4.575-7.569-9.007-7.016
				c-4.424,0.549-7.565,4.581-7.016,9.007l11.93,96.06c-0.056,0.385-0.095,0.775-0.095,1.177c0,1.11,0.225,2.168,0.63,3.131
				l6.418,51.672l-12.405,11.213c-3.308,2.989-3.566,8.096-0.575,11.403c1.593,1.763,3.789,2.66,5.99,2.66
				c1.93,0,3.868-0.689,5.411-2.085l4.008-3.623l1.861,14.985c0.283,24.312,20.149,44.006,44.528,44.006h2.135
				c24.377,0,44.243-19.689,44.527-43.999l13.261-105.535l10.878,8.441c1.471,1.142,3.213,1.694,4.944,1.694
				c2.408,0,4.792-1.073,6.384-3.124c2.733-3.522,2.093-8.593-1.43-11.327l-18.436-14.306l12.94-102.983l14.684,11.595
				c1.482,1.17,3.247,1.737,4.999,1.737c2.385,0,4.748-1.053,6.341-3.07C496.365,247.626,495.768,242.548,492.269,239.785z
				 M357.592,117.362c-2.28-8.856-7.881-24.607-20.95-39.451c14.229,5.512,29.537,16.728,35.922,39.451H357.592z M411.384,117.362
				H392.72c6.078-34.325,20.349-61.557,42.5-81.045c1.135-0.998,2.264-1.951,3.384-2.86
				C421.445,62.83,414.329,95.121,411.384,117.362z"/>
			<path d="M246.325,228.005c-15.837-36.377-50.967-59.915-90.705-60.656c-9.181-29.233-36.716-49.824-67.852-49.824
				c-39.207,0-71.105,31.898-71.105,71.105c0,26.414,14.494,50.333,37.435,62.647c-0.974,5.67-1.466,11.401-1.466,17.111
				c0,25.685,9.551,49.957,26.963,68.705c1.323,29.245,13.487,56.538,34.459,77.158c21.763,21.4,50.561,33.184,81.087,33.184
				c9.435,0,18.819-1.141,27.895-3.388c4.328-1.072,6.968-5.45,5.896-9.778c-1.073-4.327-5.448-6.965-9.778-5.896
				c-7.806,1.934-15.885,2.915-24.012,2.915c-53.892,0-98.528-43.824-99.502-97.691c-0.038-2.074-0.873-4.055-2.331-5.53
				c-15.817-16.001-24.528-37.196-24.528-59.68c0-6.617,0.788-13.276,2.343-19.79c0.917-3.838-1.076-7.777-4.712-9.311
				C46,230.668,32.811,210.784,32.811,188.63c0-30.304,24.654-54.958,54.958-54.958c25.812,0,48.419,18.3,53.758,43.514
				c0.818,3.868,4.295,6.55,8.264,6.392c1.504-0.068,2.743-0.1,3.898-0.1c34.955,0,65.914,20.99,78.876,53.476
				c0.768,1.923,2.243,3.477,4.124,4.342c35.223,16.206,57.981,51.715,57.981,90.464c0,33.875-16.975,64.913-44.907,83.221
				c-4.067-14.874-8.895-29.467-14.481-43.73c-0.058-0.159-0.115-0.319-0.183-0.475c-0.187-0.477-0.365-0.959-0.553-1.435
				c-6.307-15.875-13.563-31.348-21.698-46.339c-0.291-33.386,18.649-47.925,19.595-48.628c3.591-2.605,4.408-7.624,1.82-11.236
				c-2.596-3.625-7.641-4.459-11.265-1.861c-0.877,0.629-17.141,12.598-23.653,38.59c-5.454-8.712-11.21-17.235-17.279-25.536
				c-36.545-49.989-71.046-74.631-72.497-75.655c-3.637-2.572-8.671-1.704-11.244,1.933c-2.574,3.638-1.71,8.675,1.925,11.252
				c0.217,0.154,14.407,10.333,33.853,30.452c-13.737,0.118-23.291,4.245-23.891,4.512c-4.075,1.806-5.916,6.575-4.109,10.652
				c1.807,4.078,6.576,5.919,10.652,4.109c0.159-0.069,15.572-6.727,34.329-0.503c5.959,7.028,12.131,14.791,18.345,23.321
				c13.983,19.192,29.405,44.016,42.961,74.277c-35.658-12.374-69.319-9.334-70.979-9.172c-4.437,0.428-7.688,4.375-7.257,8.814
				c0.428,4.437,4.357,7.708,8.813,7.257c0.42-0.039,41.367-3.745,78.187,14.171c13.574,35.333,24.099,76.983,27.392,124.732
				c0.294,4.259,3.84,7.518,8.046,7.518c0.187,0,0.376-0.006,0.563-0.019c4.449-0.307,7.806-4.161,7.5-8.609
				c-1.691-24.511-5.298-48.56-10.743-71.977c35.251-20.788,56.904-58.396,56.904-99.636
				C310.817,287.796,285.606,247.42,246.325,228.005z"/>
		</g>
	</g>
</g>
<g>
</g>
<g>
</g>
<g>
</g>
<g>
</g>
<g>
</g>
<g>
</g>
<g>
</g>
<g>
</g>
<g>
</g>
<g>
</g>
<g>
</g>
<g>
</g>
<g>
</g>
<g>
</g>
<g>
</g>
</svg>
